<?xml version="1.0" encoding="utf-8"?>
<!-- Generator: Adobe Illustrator 16.0.0, SVG Export Plug-In . SVG Version: 6.00 Build 0)  -->
<!DOCTYPE svg PUBLIC "-//W3C//DTD SVG 1.1//EN" "http://www.w3.org/Graphics/SVG/1.1/DTD/svg11.dtd">
<svg version="1.1" id="Layer_2" xmlns="http://www.w3.org/2000/svg" xmlns:xlink="http://www.w3.org/1999/xlink" x="0px" y="0px"
	 width="1360.229px" height="1344.212px" viewBox="0 0 1360.229 1344.212" enable-background="new 0 0 1360.229 1344.212"
	 xml:space="preserve">
<g>
	<g>
		<g>
			<g>
				<path fill="#F76F1E" d="M947.337,1002.402c0-13.456,10.91-24.362,24.363-24.362c13.461,0,24.371,10.906,24.371,24.362
					c0,13.457-10.91,24.368-24.371,24.368C958.247,1026.771,947.337,1015.859,947.337,1002.402z"/>
				<path fill="#F76F1E" d="M1181.276,822.813c0-8.412,6.816-15.229,15.229-15.229c8.404,0,15.229,6.816,15.229,15.229
					c0,8.409-6.824,15.229-15.229,15.229C1188.093,838.042,1181.276,831.222,1181.276,822.813z"/>
				<path fill="#F76F1E" d="M1069.308,1010.996c3.803,6.284,15.057,6.43,25.143,0.335c10.088-6.1,15.195-16.135,11.393-22.415
					c-3.795-6.283-15.057-6.438-25.145-0.335C1070.612,994.686,1065.513,1004.712,1069.308,1010.996z"/>
				<path fill="#F76F1E" d="M1167.024,941.164c6.121,2.263,14.08-3.871,17.762-13.714c3.684-9.838,1.701-19.654-4.43-21.92
					c-6.119-2.267-14.07,3.862-17.752,13.714C1158.921,929.077,1160.896,938.89,1167.024,941.164z"/>
				<g>
					<linearGradient id="SVGID_1_" gradientUnits="userSpaceOnUse" x1="606.3281" y1="0" x2="606.3281" y2="1344.2119">
						<stop  offset="0.1033" style="stop-color:#FFDB15"/>
						<stop  offset="0.7934" style="stop-color:#DDA51C"/>
					</linearGradient>
					<path fill="url(#SVGID_1_)" d="M1142.706,698.121c-47.5-0.527-58.307,46.284-60.635,72.497
						c-0.9,10.173-1.904,27.943-6.18,42.438c-8.988,30.419-32.227,77.545-80.971,77.545c-71.973,0-69.037-93.95-69.037-93.95
						V265.003c0,0,0.893-30.463-1.33-42.404C914.364,167.829,870.71,13.186,684.862,0c-148.711,0-187.9,0-373.602,0
						C127.249,13.186,78.026,147.127,65.706,209.512c-3.871,19.573-5.699,61.899-5.699,61.899v389.896c0,0,0.344,55.49-1.598,75.771
						c-3.734,38.914-9.76,110.72-17.461,198.369c-11.717,133.327-39.197,254.929-39.197,254.929s-14.465,68.29,39.746,86.442
						c42.83,14.341,67.459-18.667,75.871-33.162c2.232-3.851,6.104-21.195,6.104-21.195l71.322-388.059
						c0,0,2.686-17.269,4.369-25.347c4.652-22.26,18.268-64.071,54.949-64.071c49.998,0,43.963,60.071,43.963,60.071
						l-19.051,429.273c0,0-3.846,76.188,55.672,76.188c45.035,0,62.178-29.351,67.861-43.644c0.576-1.442,2.146-8.653,2.705-13.74
						c1.141-10.417,2.523-25.187,2.523-25.187l34.613-392.27c0,0,2.033-28.767,2.602-34.78c1.689-18.118,9.846-54.448,47.928-54.448
						c50.734,0,54.211,64.467,54.211,64.467l49.816,451.254c0,0,6.225,82.043,73.252,82.043c52.521,0,56.023-56.658,55.08-81.198
						c-0.268-6.777-2.268-32.788-2.268-32.788l-27.092-420.007c0,0-0.842-16.576-0.01-22.466
						c2.104-14.929,9.719-41.305,37.293-41.305c28.568,0,37.969,16.14,43.936,27.411c3.211,6.043,4.326,15.766,4.961,24.462
						c3.486,47.64,28.689,203.824,208.959,227.964c39.557,0,155.303-10.232,192.664-117.188
						c37.359-106.956,27.84-150.171,27.84-150.171S1208.636,698.852,1142.706,698.121z"/>
				</g>
				<path fill="#F76F1E" d="M1122.077,983.307c5.193,4.794,15.641,1.932,23.332-6.396c7.701-8.327,9.734-18.964,4.551-23.75
					c-5.186-4.794-15.633-1.932-23.316,6.392C1118.942,967.88,1116.909,978.521,1122.077,983.307z"/>
				<path fill="#F76F1E" d="M1014.263,1020.035c0.746,5.786,8.893,9.504,18.189,8.302c9.289-1.206,16.217-6.872,15.471-12.653
					c-0.756-5.791-8.895-9.512-18.191-8.306C1020.442,1008.579,1013.515,1014.249,1014.263,1020.035z"/>
				<path fill="#F76F1E" d="M1186.161,885.373c5.254,1.391,11.322-4.318,13.555-12.748s-0.207-16.388-5.461-17.778
					c-5.244-1.391-11.314,4.313-13.555,12.748C1178.478,876.024,1180.915,883.986,1186.161,885.373z"/>
				<path fill="#F76F1E" d="M1208.687,782.508c3.717-0.008,6.713-4.858,6.695-10.825c-0.025-5.979-3.055-10.808-6.773-10.79
					c-3.717,0.013-6.721,4.867-6.695,10.842C1201.948,777.696,1204.97,782.529,1208.687,782.508z"/>
			</g>
			<g>
				<g>
					<path d="M800.282,476.162c-28.27-27.634-66.916-44.683-109.557-44.683c-42.648,0-81.305,17.049-109.564,44.683
						c-29.111-28.467-47.207-68.153-47.207-112.08c0-86.58,70.188-156.764,156.771-156.764c86.576,0,156.764,70.184,156.764,156.764
						C847.489,408.009,829.394,447.695,800.282,476.162z"/>
					<path fill="#FFFFFF" d="M583.771,318.66c0-29.127,23.615-52.743,52.744-52.743c29.127,0,52.744,23.616,52.744,52.743
						c0,29.128-23.617,52.744-52.744,52.744C607.386,371.404,583.771,347.788,583.771,318.66z"/>
				</g>
				<g>
					<path d="M409.091,476.162c-28.26-27.634-66.908-44.683-109.557-44.683s-81.297,17.049-109.557,44.683
						c-29.111-28.467-47.207-68.153-47.207-112.08c0-86.58,70.188-156.764,156.764-156.764c86.584,0,156.764,70.184,156.764,156.764
						C456.298,408.009,438.21,447.695,409.091,476.162z"/>
					<path fill="#FFFFFF" d="M192.587,318.66c0-29.127,23.617-52.743,52.744-52.743s52.744,23.616,52.744,52.743
						c0,29.128-23.617,52.744-52.744,52.744S192.587,347.788,192.587,318.66z"/>
					<path fill="#FFFFFF" d="M295.054,270.313c0-11.379,9.211-20.604,20.602-20.604c11.383,0,20.604,9.225,20.604,20.604
						s-9.221,20.603-20.604,20.603C304.265,290.915,295.054,281.691,295.054,270.313z"/>
				</g>
				
					<path fill="none" stroke="#000000" stroke-width="8" stroke-linecap="round" stroke-linejoin="round" stroke-miterlimit="10" d="
					M566.188,584.577c0,0-24.904,38.459-72.521,38.459c-47.619,0-72.523-38.459-72.523-38.459"/>
			</g>
		</g>
		<g>
			<g opacity="0.2">
				<circle fill="#C0EAFF" cx="694.143" cy="356.158" r="155.579"/>
				<circle fill="#C0EAFF" cx="291.971" cy="356.158" r="155.579"/>
			</g>
			<path d="M911.376,327.306h-46.838c-13.727-81.765-84.42-144.304-169.529-144.304c-84.008,0-154.334,59.436-170.627,138.221
				c-14.01-11.743-14.619-11.387-31.471-11.387c-16.844,0-17.428-0.356-31.445,11.374
				c-16.096-78.785-85.563-138.208-168.576-138.208c-91.143,0-166.053,69.999-173.469,158.729H74.446
				c-7.977,0-14.432,6.46-14.432,14.427c0,7.971,6.455,14.431,14.432,14.431h44.975c7.416,88.727,82.326,158.729,173.469,158.729
				c93.314,0,169.348-75.137,171.873-168.413c12.309-18.538,12.25-22.208,28.148-22.208s15.838,3.683,28.148,22.208
				c2.576,93.276,79.527,168.413,173.949,168.413c94.912,0,172.121-77.678,172.121-173.16h44.246c7.975,0,14.43-6.46,14.43-14.427
				S919.351,327.306,911.376,327.306z M292.89,500.457c-80.137,0-145.338-64.732-145.338-144.299
				c0-79.563,65.201-144.299,145.338-144.299c80.344,0,143.26,63.394,143.26,144.299
				C436.149,437.068,373.233,500.457,292.89,500.457z M695.009,500.457c-80.129,0-145.336-64.732-145.336-144.299
				c0-79.563,65.207-144.299,145.336-144.299c80.354,0,143.26,63.394,143.26,144.299
				C838.269,437.068,775.362,500.457,695.009,500.457z"/>
			<g opacity="0.2">
				<path fill="#FFFFFF" d="M327.786,473.9c-2.318-5.34,0.146-11.547,5.477-13.86c58.221-25.208,85.074-93.083,59.861-151.295
					c-2.318-5.34,0.145-11.546,5.484-13.859s11.547,0.146,13.855,5.485c29.832,68.879-1.939,149.184-70.822,179.011
					C336.302,481.695,330.095,479.24,327.786,473.9z"/>
			</g>
			<g opacity="0.2">
				<path fill="#FFFFFF" d="M735.083,473.9c-2.311-5.34,0.145-11.547,5.484-13.86c58.213-25.208,85.066-93.083,59.861-151.295
					c-2.318-5.34,0.137-11.546,5.484-13.859c5.332-2.313,11.539,0.146,13.857,5.485c29.822,68.879-1.949,149.184-70.824,179.011
					C743.599,481.695,737.392,479.24,735.083,473.9z"/>
			</g>
		</g>
		<g>
			<g>
				<path fill="#F76F1E" d="M1342.323,373.374h-262.672c-9.873,0-17.908,8.036-17.908,17.912v340.269
					c0,9.881,8.035,17.911,17.908,17.911h262.672c9.871,0,17.906-8.03,17.906-17.911V391.286
					C1360.229,381.41,1352.194,373.374,1342.323,373.374z"/>
			</g>
			<g>
				<path fill="#FF0000" d="M1091.429,373.374h-11.777c-9.873,0-17.908,8.036-17.908,17.912v340.269
					c0,9.881,8.035,17.911,17.908,17.911h11.777V373.374z"/>
			</g>
			<g>
				<path fill="#0065A3" d="M1318.44,367.404h-59.697c-3.297,0-5.967,2.674-5.967,5.97v89.542c0,2.15,1.15,4.138,3.021,5.198
					c1.873,1.061,4.174,1.034,6.02-0.077l26.775-16.066l26.775,16.066c0.943,0.57,2.008,0.85,3.072,0.85
					c1.014,0,2.025-0.258,2.945-0.772c1.871-1.061,3.021-3.043,3.021-5.198v-89.542
					C1324.407,370.078,1321.737,367.404,1318.44,367.404z"/>
			</g>
			<g>
				<path fill="#FFDB15" d="M1285.44,624.101h-0.428c-0.053-0.201-0.061-0.403-0.121-0.605l-33.789-106.994
					c4.232-0.708,7.479-4.369,7.479-8.808c0-4.944-4.01-8.953-8.955-8.953h-47.756c-4.945,0-8.953,4.009-8.953,8.953
					c0,4.438,3.236,8.1,7.477,8.808l-33.789,106.994c-0.068,0.202-0.076,0.404-0.129,0.605h-0.43c-4.943,0-8.953,4.009-8.953,8.958
					c0,4.945,4.01,8.949,8.953,8.949h23.883c4.945,0,8.955-4.004,8.955-8.949c0-4.442-3.238-8.1-7.479-8.808l6.645-21.041h55.389
					l6.645,21.041c-4.232,0.708-7.479,4.365-7.479,8.808c0,4.945,4.018,8.949,8.955,8.949h23.881c4.945,0,8.955-4.004,8.955-8.949
					C1294.396,628.109,1290.386,624.101,1285.44,624.101z M1205.587,579.332l19.607-62.075c0.061-0.202,0.068-0.408,0.129-0.609
					h0.85c0.053,0.201,0.061,0.407,0.129,0.609l19.6,62.075H1205.587z"/>
			</g>
		</g>
	</g>
</g>
</svg>
