<?xml version="1.0" encoding="utf-8"?>
<!-- Generator: Adobe Illustrator 16.0.0, SVG Export Plug-In . SVG Version: 6.00 Build 0)  -->
<!DOCTYPE svg PUBLIC "-//W3C//DTD SVG 1.1//EN" "http://www.w3.org/Graphics/SVG/1.1/DTD/svg11.dtd">
<svg version="1.1" id="Layer_2" xmlns="http://www.w3.org/2000/svg" xmlns:xlink="http://www.w3.org/1999/xlink" x="0px" y="0px"
	 width="1311.818px" height="1344.212px" viewBox="0 0 1311.818 1344.212" enable-background="new 0 0 1311.818 1344.212"
	 xml:space="preserve">
<g>
	<path fill="#A2A7B0" d="M943.882,854.838c-5.77,0-9.778,6.331-9.778,14.77v182.41c0,5.447,2.919,9.855,6.521,9.855h13.043v-19.72
		V869.607c0-6.49-4.317-14.658-9.67-14.77H943.882"/>
	<g>
		<g>
			<path fill="#F76F1E" d="M947.337,1002.402c0-13.456,10.902-24.362,24.363-24.362c13.451,0,24.371,10.906,24.371,24.362
				c0,13.457-10.92,24.368-24.371,24.368C958.24,1026.771,947.337,1015.859,947.337,1002.402z"/>
			<path fill="#F76F1E" d="M1181.267,822.813c0-8.412,6.816-15.229,15.229-15.229s15.237,6.816,15.237,15.229
				c0,8.409-6.824,15.229-15.237,15.229S1181.267,831.222,1181.267,822.813z"/>
			<path fill="#F76F1E" d="M1069.307,1010.996c3.794,6.284,15.058,6.43,25.144,0.335c10.088-6.1,15.188-16.135,11.393-22.415
				c-3.803-6.283-15.058-6.438-25.145-0.335C1070.612,994.686,1065.513,1004.712,1069.307,1010.996z"/>
			<path fill="#F76F1E" d="M1167.025,941.164c6.121,2.263,14.07-3.871,17.762-13.714c3.675-9.838,1.7-19.654-4.43-21.92
				c-6.12-2.267-14.078,3.862-17.752,13.714C1158.914,929.077,1160.896,938.89,1167.025,941.164z"/>
			<g>
				<linearGradient id="SVGID_1_" gradientUnits="userSpaceOnUse" x1="606.3286" y1="0" x2="606.3286" y2="1344.2119">
					<stop  offset="0.1033" style="stop-color:#FFDB15"/>
					<stop  offset="0.7934" style="stop-color:#DDA51C"/>
				</linearGradient>
				<path fill="url(#SVGID_1_)" d="M1142.706,698.121c-47.499-0.527-58.307,46.284-60.634,72.497
					c-0.9,10.173-1.905,27.943-6.189,42.438c-8.979,30.419-32.217,77.545-80.961,77.545c-71.973,0-69.037-93.95-69.037-93.95
					V265.003c0,0,0.893-30.463-1.331-42.404C914.355,167.829,870.703,13.186,684.863,0c-148.711,0-187.9,0-373.602,0
					C127.25,13.186,78.026,147.127,65.707,209.512c-3.871,19.573-5.699,61.899-5.699,61.899v389.896c0,0,0.343,55.49-1.598,75.771
					c-3.734,38.914-9.76,110.72-17.461,198.369c-11.718,133.327-39.197,254.929-39.197,254.929s-14.465,68.29,39.746,86.442
					c42.829,14.341,67.459-18.667,75.871-33.162c2.232-3.851,6.104-21.195,6.104-21.195l71.321-388.059
					c0,0,2.687-17.269,4.37-25.347c4.652-22.26,18.268-64.071,54.949-64.071c49.997,0,43.962,60.071,43.962,60.071l-19.05,429.273
					c0,0-3.846,76.188,55.672,76.188c45.035,0,62.178-29.351,67.861-43.644c0.575-1.442,2.146-8.653,2.704-13.74
					c1.142-10.417,2.524-25.187,2.524-25.187l34.613-392.27c0,0,2.033-28.767,2.601-34.78c1.69-18.118,9.847-54.448,47.928-54.448
					c50.735,0,54.212,64.467,54.212,64.467l49.816,451.254c0,0,6.224,82.043,73.252,82.043c52.521,0,56.015-56.658,55.07-81.198
					c-0.258-6.777-2.258-32.788-2.258-32.788l-27.102-420.007c0,0-0.832-16.576,0-22.466c2.095-14.929,9.709-41.305,37.292-41.305
					c28.569,0,37.961,16.14,43.937,27.411c3.201,6.043,4.326,15.766,4.961,24.462c3.486,47.64,28.689,203.824,208.958,227.964
					c39.558,0,155.304-10.232,192.665-117.188c37.359-106.956,27.84-150.171,27.84-150.171S1208.635,698.852,1142.706,698.121z"/>
			</g>
			<path fill="#F76F1E" d="M1122.077,983.307c5.185,4.794,15.632,1.932,23.333-6.396c7.691-8.327,9.727-18.964,4.55-23.75
				c-5.185-4.794-15.633-1.932-23.324,6.392C1118.935,967.88,1116.9,978.521,1122.077,983.307z"/>
			<path fill="#F76F1E" d="M1014.253,1020.035c0.756,5.786,8.895,9.504,18.191,8.302c9.289-1.206,16.217-6.872,15.469-12.653
				c-0.755-5.791-8.893-9.512-18.189-8.306C1020.435,1008.579,1013.507,1014.249,1014.253,1020.035z"/>
			<path fill="#F76F1E" d="M1186.161,885.373c5.245,1.391,11.323-4.318,13.556-12.748c2.231-8.43-0.215-16.388-5.461-17.778
				c-5.254-1.391-11.314,4.313-13.555,12.748C1178.468,876.024,1180.907,883.986,1186.161,885.373z"/>
			<path fill="#F76F1E" d="M1208.678,782.508c3.717-0.008,6.722-4.858,6.696-10.825c-0.026-5.979-3.057-10.808-6.773-10.79
				c-3.709,0.013-6.713,4.867-6.696,10.842C1201.939,777.696,1204.97,782.529,1208.678,782.508z"/>
		</g>
		<g>
			<g>
				<path d="M800.274,476.162c-28.261-27.634-66.908-44.683-109.557-44.683c-42.647,0-81.296,17.049-109.557,44.683
					c-29.11-28.467-47.206-68.153-47.206-112.08c0-86.58,70.188-156.764,156.763-156.764c86.585,0,156.764,70.184,156.764,156.764
					C847.481,408.009,829.393,447.695,800.274,476.162z"/>
				<circle fill="#FFFFFF" cx="636.515" cy="318.66" r="52.744"/>
			</g>
			<g>
				<path d="M409.091,476.162c-28.261-27.634-66.908-44.683-109.557-44.683s-81.297,17.049-109.557,44.683
					c-29.111-28.467-47.207-68.153-47.207-112.08c0-86.58,70.188-156.764,156.764-156.764c86.584,0,156.764,70.184,156.764,156.764
					C456.298,408.009,438.21,447.695,409.091,476.162z"/>
				<circle fill="#FFFFFF" cx="245.331" cy="318.66" r="52.744"/>
				<path fill="#FFFFFF" d="M295.053,270.313c0-11.379,9.211-20.604,20.603-20.604c11.383,0,20.604,9.225,20.604,20.604
					s-9.221,20.603-20.604,20.603C304.264,290.915,295.053,281.691,295.053,270.313z"/>
			</g>
			<path fill="none" stroke="#000000" stroke-width="8" stroke-linecap="round" stroke-linejoin="round" stroke-miterlimit="10" d="
				M566.189,584.577c0,0-24.904,38.459-72.522,38.459s-72.522-38.459-72.522-38.459"/>
		</g>
	</g>
	<g>
		<path fill="#D8DFEA" d="M953.672,1042.18h104.363V866.667c0-6.528-4.378-11.829-9.782-11.829H943.886
			c5.408,0,9.786,8.254,9.786,14.795V1042.18z"/>
		<path fill="#0065A3" d="M960.197,1081.626c-3.602,0-6.524-4.417-6.524-9.864v-29.582h104.363v29.582
			c0,5.447-2.919,9.864-6.521,9.864H960.197"/>
	</g>
	<g>
		<path fill="#A2A7B0" d="M1170.626,568.962c0,12.404-10.061,22.466-22.461,22.466c-12.409,0-22.467-10.062-22.467-22.466
			c0-12.405,10.058-22.462,22.467-22.462C1160.566,546.5,1170.626,556.557,1170.626,568.962z"/>
		<path fill="#A2A7B0" d="M1009.662,717.171c0,7.001-5.68,12.68-12.684,12.68c-7.002,0-12.68-5.679-12.68-12.68
			c0-7.005,5.678-12.684,12.68-12.684C1003.982,704.487,1009.662,710.166,1009.662,717.171z"/>
		<path fill="#A2A7B0" d="M1311.818,717.171c0,7.001-5.684,12.68-12.688,12.68c-7.002,0-12.68-5.679-12.68-12.68
			c0-7.005,5.678-12.684,12.68-12.684C1306.134,704.487,1311.818,710.166,1311.818,717.171z"/>
		<path fill="#D8DFEA" d="M1281.003,724.704h-265.681V701.8c0-73.364,59.474-132.838,132.843-132.838
			c73.359,0,132.834,59.474,132.834,132.838v22.904H1281.003z"/>
		<path fill="#A2A7B0" d="M997.192,704.487h301.938v25.363H997.192V704.487z"/>
	</g>
</g>
</svg>
