<?xml version="1.0" encoding="utf-8"?>
<!-- Generator: Adobe Illustrator 23.0.3, SVG Export Plug-In . SVG Version: 6.00 Build 0)  -->
<svg version="1.1" id="Layer_1" xmlns="http://www.w3.org/2000/svg" xmlns:xlink="http://www.w3.org/1999/xlink" x="0px" y="0px"
	 viewBox="0 0 3840 2015.8" style="enable-background:new 0 0 3840 2015.8;" xml:space="preserve">
<style type="text/css">
	.st0{clip-path:url(#SVGID_2_);fill:#FFB415;}
	.st1{clip-path:url(#SVGID_4_);fill:#FFDB15;}
	.st2{clip-path:url(#SVGID_6_);fill:url(#SVGID_7_);}
</style>
<g>
	<g>
		<g>
			<defs>
				<path id="SVGID_1_" d="M0,91C0,91,1030.8,0,1920,0s1920,91,1920,91v1924.8H0V91z"/>
			</defs>
			<clipPath id="SVGID_2_">
				<use xlink:href="#SVGID_1_"  style="overflow:visible;"/>
			</clipPath>
			<polygon class="st0" points="1266.6,-22.6 3903.6,-22.6 3903.6,2047.7 722.6,2047.7 			"/>
		</g>
	</g>
	<g>
		<g>
			<defs>
				<path id="SVGID_3_" d="M0,91C0,91,1030.8,0,1920,0s1920,91,1920,91v1924.8H0V91z"/>
			</defs>
			<clipPath id="SVGID_4_">
				<use xlink:href="#SVGID_3_"  style="overflow:visible;"/>
			</clipPath>
			<polygon class="st1" points="2212.6,2034.1 -424.4,2034.1 -424.4,-36.2 2756.6,-36.2 			"/>
		</g>
		<g>
			<defs>
				<path id="SVGID_5_" d="M0,91C0,91,1030.8,0,1920,0s1920,91,1920,91v1924.8H0V91z"/>
			</defs>
			<clipPath id="SVGID_6_">
				<use xlink:href="#SVGID_5_"  style="overflow:visible;"/>
			</clipPath>
			
				<linearGradient id="SVGID_7_" gradientUnits="userSpaceOnUse" x1="1647.6772" y1="-486.3568" x2="2067.0288" y2="1891.9039" gradientTransform="matrix(-1 0 0 1 3840 -0.174)">
				<stop  offset="0.5124" style="stop-color:#FFB415"/>
				<stop  offset="0.9256" style="stop-color:#FFB415;stop-opacity:0"/>
			</linearGradient>
			<polygon class="st2" points="1266.6,-363.7 2888.7,-363.7 2888.7,1706.5 722.6,1706.5 			"/>
		</g>
	</g>
</g>
</svg>
