<?xml version="1.0" encoding="utf-8"?>
<!-- Generator: Adobe Illustrator 23.0.3, SVG Export Plug-In . SVG Version: 6.00 Build 0)  -->
<svg version="1.1" id="Layer_1" xmlns="http://www.w3.org/2000/svg" xmlns:xlink="http://www.w3.org/1999/xlink" x="0px" y="0px"
	 viewBox="0 0 1150.5 1205.4" style="enable-background:new 0 0 1150.5 1205.4;" xml:space="preserve">
<style type="text/css">
	.st0{opacity:0.5;}
	.st1{fill:#D2D8E3;}
	.st2{fill:#D3008D;}
	.st3{fill:#FF2C9C;}
	.st4{fill:#EF7A13;}
	.st5{fill:#F59035;}
	.st6{fill:#F48521;}
	.st7{fill:#B45EF4;}
	.st8{fill:#983BE9;}
	.st9{fill:#721BD5;}
	.st10{fill:#8A2AE3;}
	.st11{fill:#ED0389;}
	.st12{fill:#5575FF;}
	.st13{fill:#3858E3;}
	.st14{fill:#FFDB15;}
	.st15{fill:#FFC2B0;}
	.st16{fill:#FFFFFF;}
	.st17{fill:#EA9C92;}
	.st18{fill:#8392A9;}
	.st19{fill:#4C69E5;}
	.st20{fill:#CF5D19;}
	.st21{fill:#EBC913;}
	.st22{fill:#EAEDF2;}
	.st23{fill:#5793CE;}
	.st24{fill:#D4ECFF;}
	.st25{fill:#6683FF;}
	.st26{fill:#00DDC2;}
	.st27{fill:#80FFF0;}
	.st28{opacity:0.5;fill:#D2D8E3;}
	.st29{fill:#79869B;}
	.st30{fill:#754C24;}
</style>
<g>
	<g>
		<g>
			<g class="st0">
				<path class="st1" d="M520.4,740.8l16.3-140c97,5.8,192.3,23.5,278.8,53.2l-131.6,118C632.8,755.2,577.2,744.8,520.4,740.8z"/>
			</g>
			<g>
				<path class="st2" d="M520.4,688.2l16.3-140c97,5.8,192.3,23.5,278.8,53.2l-131.6,118C632.8,702.6,577.2,692.3,520.4,688.2z"/>
			</g>
			<polygon class="st2" points="520.4,391.4 680.6,398.6 683.9,422.6 683.9,719.4 559.2,672.2 520.4,688.2 			"/>
			<polygon class="st2" points="815.5,304.6 815.5,601.4 683.9,719.4 683.9,422.6 			"/>
			<g>
				<path class="st3" d="M520.4,391.4l16.3-140c97,5.8,192.3,23.5,278.8,53.2l-131.6,118C632.8,405.9,577.2,395.5,520.4,391.4z"/>
			</g>
			<path class="st3" d="M683.9,429C633,412.3,577,401.8,520.4,397.7v4.4c56.7,4,112.4,14.4,163.5,31.2l131.6-118c0-1,0-3.1,0-4.4
				L683.9,429z"/>
		</g>
		<g>
			<g class="st0">
				<path class="st1" d="M470.8,738c-106.9-0.7-214.1,20.9-299.1,64.8L0,703.7C136.7,630.2,312.7,595,487.1,598.1L470.8,738z"/>
			</g>
			<g>
				<path class="st4" d="M470.8,686.3c-106.9-0.7-214.1,20.9-299.1,64.8L0,651.9c136.7-73.5,312.7-108.6,487.1-105.6L470.8,686.3z"
					/>
			</g>
			<polygon class="st4" points="470.8,686.3 470.8,583.8 487.1,443.9 487.1,546.4 			"/>
			<polygon class="st4" points="171.7,648.6 363,476.7 470.8,583.8 470.8,686.3 192.6,684.5 171.7,751.1 			"/>
			<polygon class="st5" points="0,549.5 0,651.9 171.7,751.1 171.7,648.6 			"/>
			<g>
				<path class="st6" d="M470.8,583.8c-106.9-0.7-214.1,20.9-299.1,64.8L0,549.5C136.7,476,312.7,440.8,487.1,443.9L470.8,583.8z"/>
			</g>
			<path class="st6" d="M470.8,589.4c-106.9-0.7-214.1,20.9-299.1,64.8L0,555c0,0.9,0,4,0,4.9l171.7,99.1
				c84.9-43.9,192.1-65.4,299.1-64.8l16.3-141.8c-0.1,0-0.2,0-0.3,0L470.8,589.4z"/>
		</g>
		<g>
			<g class="st0">
				<path class="st1" d="M842.2,1125.3c105-98.3,83.8-228.8-63.8-314.1c-16.6-9.6-34.2-18.2-52.6-26l131.5-117.9
					c32.6,13.1,63.7,28,92.8,44.8c232.1,134,262.5,340.3,91.6,493.3L842.2,1125.3z"/>
			</g>
			<g>
				<path class="st7" d="M842.2,1075c105-98.3,83.8-228.8-63.8-314.1c-16.6-9.6-34.2-18.2-52.6-26L857.3,617
					c32.6,13.1,63.7,28,92.8,44.8c232.1,134,262.5,340.3,91.6,493.3L842.2,1075z"/>
			</g>
			<path class="st7" d="M725.8,552.6v182.4l116.5,43.3c0,0,151.3-82.6,151.3-84.5c0-1.9-25.5-176.8-44.2-184.6
				S725.8,552.6,725.8,552.6z"/>
			<polygon class="st8" points="842.2,1075 842.2,892.6 1041.7,972.8 1041.7,1155.1 			"/>
			<path class="st9" d="M1041.7,858.4v296.8c0,0,104.1-87.7,108.8-204.2l-0.2-190.5l-121.1-17.5L1041.7,858.4z"/>
			<g>
				<path class="st10" d="M842.2,892.6c105-98.3,83.8-228.8-63.8-314.1c-16.6-9.6-34.2-18.2-52.6-26l131.5-117.9
					c32.6,13.1,63.7,28,92.8,44.8c232.1,134,262.5,340.3,91.6,493.3L842.2,892.6z"/>
			</g>
			<g>
				<path class="st10" d="M1041.7,979.8l-199.5-80.2c0,1.5,0,3.2,0,4.7l199.5,80.2c73.1-65.5,109.3-140.7,108.7-215.8
					C1149.5,842.3,1113.3,915.7,1041.7,979.8z"/>
				<path class="st10" d="M907.7,770c1.9-66.6-41.2-133.6-129.2-184.4c-15.5-9-35.5-18.5-52.6-25.9v4.6c18.4,7.7,36,16.4,52.6,26
					C864.4,639.9,907.4,704.9,907.7,770z"/>
			</g>
		</g>
	</g>
	<g>
		<path class="st11" d="M676.8,350.5c-18.8,10.9-49.3,10.9-68.1,0c-18.8-10.9-18.8-28.5,0-39.3c18.8-10.9,49.3-10.9,68.1,0
			C695.6,322.1,695.6,339.7,676.8,350.5z"/>
		<g>
			<g>
				<g>
					<path d="M645.6,315.9c-0.6,1.4-10,12.9-19.5,15.8c-4.1,1.3-6.9,1.4-8.7,1.2c-1.8-0.2-2.9-2.1-2.3-3.8
						c1.6-4.6,6.3-14.2,18.2-20.1C649.3,301,645.6,315.9,645.6,315.9z"/>
					<path d="M648.8,320.3c0,0-3.6,8.4-4.7,15.4c-0.7,4.3,1.7,9.8,3.6,13.5c1.2,2.3,4.2,2.8,6.2,1.1c3.1-2.8,7-7.7,7.7-14.7
						c1.1-11.8,0-13.9,0-13.9L648.8,320.3z"/>
					<path class="st12" d="M671.6,177.4c0,0,1.2,14.9,0,31.4c-1.2,16.5-5.7,93.7-6.5,112.2c0,0,0.4,5.6-10.5,4.4
						c-10.9-1.2-10-7.5-10-7.5s-15.3-0.2-15.8-9.2c-0.5-9-15.6-107.5-15.6-143L671.6,177.4z"/>
					<path class="st13" d="M644.6,317.9c0,0-1.9,0-4.4-0.5l0,0l-3-119.9L644.6,317.9z"/>
					<path class="st14" d="M655.4,67.9c24.7,10.2,24.2,24.8,24.2,24.8s-4.8,53.5-3.2,89.2c0.7,14.9-79.3,16.1-67.4-23.8
						c14.1-47,8.8-85,15.4-90.7C631,61.7,649.1,65.3,655.4,67.9z"/>
					<path class="st15" d="M663.4,80.9c-1.3,5-7.9,7.7-14.7,5.9c-6.8-1.8-11.3-7.2-10-12.2c1.3-5,7.9-7.7,14.7-5.9
						C660.2,70.4,664.7,75.8,663.4,80.9z"/>
					<path class="st16" d="M652.9,88.5c-1.4,0-2.9-0.2-4.5-0.6c-7.4-1.9-12.3-8.1-10.8-13.7c1.4-5.6,8.7-8.7,16.1-6.7
						c7.4,1.9,12.3,8,10.8,13.7l0,0C663.4,85.6,658.6,88.5,652.9,88.5z M649.2,69.2c-4.6,0-8.4,2.1-9.3,5.6c-1.1,4.4,3,9.2,9.1,10.8
						c6.2,1.6,12.1-0.7,13.2-5.1c1.1-4.4-3-9.2-9.1-10.8C651.8,69.4,650.4,69.2,649.2,69.2z"/>
					<path class="st15" d="M645.6,66.8c0,0,0.2,1-0.2,8.8c-0.1,2.5,8.5,4.8,10.7,2.5c2.2-2.2,1.3-4.5,1.9-12.9
						C658.4,56.9,645.6,66.8,645.6,66.8z"/>
					<path class="st17" d="M657.9,65.2c0,0-2.1,7.8-12.6,10.7l0.2-7.1L657.9,65.2z"/>
					<path class="st15" d="M664.5,45.5c2.6,10.2-3.5,20.5-13.6,23.2c-10.2,2.6-20.5-3.5-23.2-13.6c-2.6-10.2,3.5-20.5,13.6-23.1
						C651.5,29.3,661.9,35.4,664.5,45.5z"/>
					<path class="st17" d="M650.5,51c0,0-10.5,4.5-17.7,4.5c-7.2,0.1-5.6-6-5.6-6l21.5-3.1L650.5,51z"/>
					<path class="st18" d="M630.6,52.2c0,0,9.1-3.9,17.1-2.3c1.9,0.4,3.6,1.4,4.8,2.9c0.4,0.5,0.9,0.9,1.5,1.1
						c1.4,0.3,3.7-5.6,6.5-5.7c2.8-0.1,4.6,1.8,2.3,5.4c-2.3,3.6-1.5,7.7-0.5,8.2c1,0.6,12.1-7.9,2.3-27.1
						c-9.7-19.3-34.4-8.9-38.3-5c0,0-4.1,3.5-7.3,0.4C619.1,30.1,615.4,57.7,630.6,52.2z"/>
					<path class="st15" d="M612.4,63.5l-13.3-5.7c-1.5-0.7-2.7-1.9-3.2-3.5l-13.1-38l-6.1,1.1l10.6,47.3c0.5,2.2,1.9,4.1,3.9,5.2
						l22.1,12.4L612.4,63.5z"/>
				</g>
				<path class="st15" d="M750.4,69.7l3.1-1.4c2.6-1.2,5-2.8,7-4.8l2.1-2.1c1.2-1.2,1.6-3,0.9-4.5l0,0c-0.5-1.2-1.9-1.7-3.1-1.1
					L754,59c0,0,1-2.8,0.5-3.6c-0.5-0.7-5.4,4.7-7.7,8.6C744.6,67.8,750.4,69.7,750.4,69.7z"/>
				<path class="st15" d="M697.5,84.9l11.4-1.3c2.7-0.3,5.3-1.1,7.6-2.5L746.9,64l3.6,5.8l-31.1,24c-1,0.7-2,1.4-3.1,1.8l-18.5,7.9
					L697.5,84.9z"/>
				<path class="st15" d="M576.7,17.4l-1.2-1.3c-1.3-1.5-2.2-3.4-2.5-5.4l-0.8-5.5c-0.3-1.7,0.4-3.5,1.8-4.5c0.1,0,0.1-0.1,0.2-0.1
					c1.5-1,3.5-0.3,4.2,1.4l2.7,6.6c0,0-0.9-3.4,0.2-3.8c0.8-0.3,2.3,4,1.4,6.3c-0.9,2.4-0.1,5.4-0.1,5.4L576.7,17.4z"/>
				<path class="st16" d="M638.6,63.4l-4.9-1.3c0,0,2.3,3.7,5.8,4.6c3.4,0.9,4-2,4-2L638.6,63.4z"/>
			</g>
		</g>
		<path class="st14" d="M631.2,64.7c0,0-22.2-4.4-28.9-6.4c-6.8-2.1-9.6,16.5-9.1,21.3c0.5,4.7,23.6,10,26.3,18.1
			C622.3,105.7,631.2,64.7,631.2,64.7z"/>
		<path class="st14" d="M665.1,72.9c0,0,16.2,7,43.3,10.3c1.1,0.1,2.1,0.9,2.4,1.9c1,3,2.8,9.6,1.4,16.3c-0.6,2.8-3.1,4.7-5.9,4.7
			c-8.5-0.1-26.8,0.8-29.7,8.7C672.8,125.2,665.1,72.9,665.1,72.9z"/>
		<path class="st16" d="M655.6,87.5l-4.4,4.8c-0.6,0.6-0.9,1.5-0.8,2.3l3.1,26.4c0.1,0.7-0.1,1.5-0.6,2.1l-9.6,12.5
			c-0.4,0.6-1.3,0.4-1.5-0.3l-5.2-16.4c-0.2-0.6-0.2-1.3,0.1-1.9l9.2-24c0.2-0.5,0.2-1.1,0.1-1.6l-1.3-6.4L655.6,87.5z"/>
	</g>
	<g>
		<path class="st19" d="M194.8,418.2c0,0,3.1,16.9,16.6,20.8c13.5,3.9,12.4,15.8,12.4,15.8s6.8-19.5-5.2-29.8
			c-12-10.3-23.8-8.5-23.8-8.5L194.8,418.2z"/>
		<path class="st12" d="M180.8,425.9c0,3.5-2.8,6.3-6.3,6.3c-3.5,0-6.3-2.8-6.3-6.3c0-3.5,2.8-6.3,6.3-6.3
			C178,419.6,180.8,422.5,180.8,425.9z"/>
		<path class="st12" d="M200,416.5c0,3.5-2.8,6.3-6.3,6.3c-3.5,0-6.3-2.8-6.3-6.3c0-3.5,2.8-6.3,6.3-6.3
			C197.2,410.2,200,413,200,416.5z"/>
		<g>
			<path d="M223.3,698.1c0,0,6.7-3.4,10.8,1.7c4.1,5,10,16.9,10.2,25c0.2,8-6.4,7.5-10.3,5.6c-3.9-1.9-15.3-18.4-16-21.6
				c-0.7-3.2,0.8-7.6,1.9-8.5C221.1,699.4,223.3,698.1,223.3,698.1z"/>
			<path class="st15" d="M221.8,696.5l-0.3,7c-0.1,1.5,0.7,2.9,2,3.6c1.2,0.7,2.9,1.2,5.2,0.8c5.1-0.8,5.5-2.3,5.9-9.2
				C234.9,691.7,221.8,696.5,221.8,696.5z"/>
			<g>
				<path d="M247.9,684.7c0,0,6.7-3.4,10.8,1.7c4.1,5,10,16.9,10.2,25c0.2,8-6.4,7.5-10.3,5.6c-3.9-1.9-15.3-18.4-16-21.6
					c-0.7-3.2,0.8-7.6,1.9-8.5C245.7,686.1,247.9,684.7,247.9,684.7z"/>
				<path class="st15" d="M246.4,683.1l-0.3,7c-0.1,1.5,0.7,2.9,2,3.6c1.2,0.7,2.9,1.2,5.2,0.8c5.1-0.8,5.5-2.3,5.9-9.2
					C259.5,678.3,246.4,683.1,246.4,683.1z"/>
				<path class="st2" d="M186.5,555.4c2-32.3,35,4.8,35,4.8l22.6,22.2l20.4,22.4c4,4.4,5.8,10.3,5.1,16.1l-8.2,62.7
					c-0.4,3.1-3.1,5.4-6.2,5.4c-0.9,0-1.9-0.1-3.1-0.3c-7.4-1.1-6.8-8.1-6.8-8.1l1.5-58.7L204,596C204,596,184.5,587.7,186.5,555.4z
					"/>
			</g>
			<path class="st20" d="M230.4,610.7l6.1-2.2c0.1,0,10.3,9.9,10.3,13.3l-4.6,1.5l-11.5-11.2L230.4,610.7z"/>
			<path class="st20" d="M195.1,622.2c0,0-25.4-14.5-28.5-20.6c-1.2-2.4-3-4.9,4.4-8.5l48.4,35.9l-8.9,2.6L195.1,622.2z"/>
			<path class="st3" d="M161.9,567.9c2.1-32.3,35,4.8,35,4.8l22.6,22.2l20.4,22.4c4,4.4,5.8,10.3,5.1,16.1l-8.2,62.7
				c-0.4,3.1-3.1,5.4-6.2,5.4c-0.9,0-1.9-0.1-3.1-0.3c-7.4-1.1-6.8-8.1-6.8-8.1l1.5-58.7l-42.8-25.8
				C179.4,608.5,160,597.4,161.9,567.9z"/>
			<path class="st14" d="M181.5,463.9c-25,10.4-24.5,25.2-24.5,25.2s4.9,54.3,3.2,90.5c-0.7,15.2,80.5,16.3,68.4-24.1
				c-14.3-47.7-8.9-86.3-15.6-92.1C206.2,457.6,187.9,461.2,181.5,463.9z"/>
			<path class="st15" d="M173.4,477c1.3,5.1,8,7.8,14.9,6c6.9-1.8,11.4-7.3,10.1-12.4c-1.3-5.1-8-7.8-14.9-6
				C176.6,466.4,172.1,472,173.4,477z"/>
			<path class="st16" d="M184,484.8c-2,0-4-0.4-5.7-1.1c-3.2-1.3-5.3-3.5-6.1-6.4c-1.5-5.7,3.5-11.9,11-13.9
				c3.6-0.9,7.2-0.8,10.3,0.5c3.2,1.3,5.3,3.5,6.1,6.4c1.5,5.7-3.5,11.9-11,13.9C187.1,484.6,185.5,484.8,184,484.8z M187.8,465.2
				c-1.3,0-2.6,0.2-4,0.5c-6.3,1.6-10.4,6.5-9.3,11l0,0c0.5,2.1,2.2,3.8,4.6,4.8c2.6,1,5.7,1.2,8.8,0.4c6.3-1.6,10.4-6.5,9.3-11
				c-0.5-2.1-2.2-3.8-4.6-4.8C191.2,465.5,189.5,465.2,187.8,465.2z"/>
			<path class="st15" d="M191.5,462.8c0,0-0.2,1,0.2,8.9c0.1,2.5-8.6,4.8-10.9,2.6c-2.3-2.3-1.4-4.6-1.9-13.1
				C178.4,452.7,191.5,462.8,191.5,462.8z"/>
			<path class="st17" d="M179,461.2c0,0,2.2,7.9,12.8,10.9l-0.2-7.2L179,461.2z"/>
			<path class="st15" d="M172.2,441.2c-2.7,10.3,3.5,20.8,13.8,23.5c10.3,2.7,20.8-3.5,23.5-13.8c2.7-10.3-3.5-20.8-13.8-23.5
				C185.4,424.7,174.9,430.9,172.2,441.2z"/>
			<path class="st17" d="M186.5,446.7c0,0,10.6,4.5,18,4.6c7.4,0.1,5.7-6.1,5.7-6.1l-21.8-3.2L186.5,446.7z"/>
			<path class="st12" d="M206.6,447.9c0,0-9.2-3.9-17.4-2.3c-1.9,0.4-3.7,1.4-4.9,2.9c-0.4,0.5-0.9,0.9-1.5,1.1
				c-1.4,0.3-3.8-5.6-6.6-5.8c-2.8-0.1-4.7,1.8-2.4,5.5c2.3,3.7,1.5,7.8,0.5,8.4c-1.1,0.6-12.2-8-2.4-27.5c9.9-19.6,34.9-9,38.8-5.1
				c0,0,0.2,0.1,0.5,0.3c5.3,3.7,8.1,10.2,6.3,16.5C216.1,446.8,213,450.3,206.6,447.9z"/>
			<path class="st15" d="M171,528.8v14.7c0,1.7,0.7,3.3,2,4.4l30.1,27.5l-3.4,5.2l-39.8-28.9c-1.9-1.3-3.1-3.4-3.3-5.7l-2.7-25.6
				L171,528.8z"/>
			<path class="st14" d="M159,481.8c0,0-9.1,13.7-12.5,49.9c0,0,15.6,5.1,24.5,2.2C179.8,531,159,481.8,159,481.8z"/>
			<path class="st21" d="M172.6,499.1c0,0,3.6,19.1,3.8,28.1c0.1,2.5-1.5,4.7-3.8,5.6l0,0V499.1z"/>
		</g>
		<g>
			<path class="st18" d="M180.5,594.4l6.7-0.9l43-24.8c1.4-0.8,3.8-0.7,5.4,0.2l30.5,17.6l4-0.5v4h0c0,0.5-0.3,1-0.9,1.4l-48.7,28.1
				c-1.4,0.8-3.8,0.7-5.4-0.2l-33.2-19.1c-0.9-0.5-1.3-1.2-1.3-1.8l0,0V594.4z"/>
			<path class="st22" d="M212.8,578.7l3.1-1.8h33.6l16.6,9.5l4-0.5v4h0c0,0.5-0.3,1-0.9,1.4l-48.7,28.1c-0.7,0.4-1.7,0.6-2.8,0.5
				L212.8,578.7z"/>
			<path class="st23" d="M268.2,586.2l1.8-0.2v4h0c0,0.5-0.3,1-0.9,1.4l-0.9,0.5V586.2z"/>
			<path class="st22" d="M219.8,619.7c-1.3,0.5-3.2,0.4-4.6-0.3v-6.8h4.6V619.7z"/>
			<path class="st16" d="M220.3,615.5l48.7-28.1c1.4-0.8,1.2-2.2-0.4-3.1l-33.2-19.1c-1.6-0.9-4-1-5.4-0.2L181.4,593
				c-1.4,0.8-1.2,2.2,0.4,3.1l33.2,19.1C216.5,616.2,218.9,616.3,220.3,615.5z"/>
			<path class="st24" d="M221.1,611.2l40.5-23.4c1.1-0.7,1-1.8-0.3-2.6l-17.8-10c-1.3-0.8-3.3-0.8-4.5-0.2l-40.5,23.4
				c-1.1,0.7-1,1.8,0.3,2.6l17.8,10C218,611.8,220,611.9,221.1,611.2z"/>
		</g>
		<path class="st15" d="M233.6,564.2l0.5,3.4c0.4,2.9,0.4,5.8-0.2,8.6l-0.6,3c-0.3,1.7-1.7,3-3.3,3.3l0,0c-1.3,0.2-2.5-0.7-2.7-2
			l-0.8-7.2c0,0-1.8,2.4-2.7,2.4c-0.9,0,1-7.2,3-11.3C228.7,560.3,233.6,564.2,233.6,564.2z"/>
		<path class="st15" d="M217.1,510.8l5.2,10.3c1.2,2.4,2,5.1,2.1,7.9l2.3,35.4l6.9-0.2l3.1-39.7c0.1-1.2,0-2.5-0.2-3.7l-3.6-20.2
			L217.1,510.8z"/>
		<g>
			<path class="st18" d="M222,618.2l4.1-5.3l43-24.9c1.4-0.8,2.5-2.9,2.5-4.8l0-35.2l2.5-3.2l-2.3-1.3v0c-0.4-0.3-1-0.3-1.7,0.1
				l-48.7,28.2c-1.4,0.8-2.5,2.9-2.5,4.8l0,38.3c0,1,0.4,1.8,0.9,2l0,0L222,618.2z"/>
			<path class="st22" d="M251.7,598l3.1-1.8l16.8-29.1l0-19.1l2.5-3.2l-2.3-1.3v0c-0.4-0.3-1-0.3-1.7,0.1l-48.7,28.2
				c-0.7,0.4-1.4,1.2-1.8,2.1L251.7,598z"/>
			<path class="st22" d="M272.8,546.3l1.1-1.4l-2.3-1.3v0c-0.4-0.3-1-0.3-1.7,0.1l-0.9,0.5L272.8,546.3z"/>
			<path class="st22" d="M220.8,572.1c-1.1,0.9-1.9,2.6-2,4.1l4.8,2.7l2.3-4L220.8,572.1z"/>
			<path class="st1" d="M223.6,573.1l48.7-28.2c1.4-0.8,2.5,0,2.5,1.9l0,38.3c0,1.8-1.1,4-2.5,4.8l-48.7,28.2
				c-1.4,0.8-2.5,0-2.5-1.9l0-38.3C221.1,576,222.2,573.9,223.6,573.1z"/>
		</g>
		<path class="st15" d="M199.6,580.5l0.8,1.6c0.9,1.9,2.3,3.4,4.1,4.5l4.8,3c1.5,0.9,3.4,1,4.9,0.1c0.1,0,0.1-0.1,0.2-0.1
			c1.5-1,1.7-3.2,0.4-4.5l-5.1-5.2c0,0,2.8,2.2,3.6,1.3c0.6-0.6-2.8-3.8-5.3-3.9c-2.6-0.1-5-2.1-5-2.1L199.6,580.5z"/>
		<path class="st14" d="M212.4,463.4c0,0,18.5,20.2,26,38.6c0,0-6.3,11.4-21.8,15.9C201.1,522.4,212.4,463.4,212.4,463.4z"/>
		<path class="st21" d="M220.1,516.7l-3-29l7.1,27.2C222.9,515.5,221.5,516.1,220.1,516.7z"/>
		<path class="st16" d="M198.6,459.3l5-1.4c0,0-2.4,3.7-5.8,4.7c-3.5,1-4-2-4-2L198.6,459.3z"/>
		<path class="st25" d="M172.1,426.4c0,0,4.6,16.6-5.8,26c-10.4,9.4-4.2,19.7-4.2,19.7s-14.6-14.6-8.3-29.1
			c6.3-14.5,17.7-18,17.7-18L172.1,426.4z"/>
	</g>
	<g>
		<g>
			<path class="st26" d="M877.7,664.9l-95.5-55.1c-1.9-1.1-3.6-1.1-4.9-0.4c0,0,0-0.1,0-0.1l-9.3,5.4c0,0,4.1,1.5,6.5,2.4v69.6
				c0,5.7,3.4,12.2,7.7,14.7l91.3,52.7v8.2l9.4-5.4l-0.1,0c1.6-1,2.6-3.1,2.6-6.1v-71C885.4,673.9,882,667.4,877.7,664.9z"/>
			<path class="st27" d="M868.3,761.9l-95.5-55.1c-4.2-2.5-7.7-9-7.7-14.7v-71c0-5.7,3.4-8.3,7.7-5.8l95.5,55.1
				c4.2,2.5,7.7,9,7.7,14.7v71C876,761.7,872.5,764.3,868.3,761.9z"/>
			<path class="st16" d="M868.3,670.4l-95.5-55.1c-2.4-1.4-4.5-1.1-5.9,0.4c1-0.1,2.2,0.2,3.4,0.9l95.5,55.1c4.2,2.4,7.7,9,7.7,14.7
				v71c0,2.4-0.7,4.3-1.7,5.4c2.5-0.2,4.3-2.6,4.3-6.7v-71C876,679.4,872.5,672.8,868.3,670.4z"/>
		</g>
		<g>
			<path class="st16" d="M804.9,682.3c0,4.1-2.9,5.8-6.4,3.7c-3.6-2.1-6.4-7.1-6.4-11.2c0-4.1,2.9-5.8,6.4-3.7
				C802,673.1,804.9,678.1,804.9,682.3z"/>
			<path class="st16" d="M824.4,693.5c0,4.1-2.9,5.8-6.4,3.7c-3.6-2.1-6.4-7.1-6.4-11.2c0-4.1,2.9-5.8,6.4-3.7
				C821.5,684.4,824.4,689.4,824.4,693.5z"/>
			<path class="st16" d="M844,704.8c0,4.1-2.9,5.8-6.4,3.7c-3.6-2.1-6.4-7.1-6.4-11.2c0-4.1,2.9-5.8,6.4-3.7
				C841.1,695.7,844,700.7,844,704.8z"/>
		</g>
	</g>
	<path class="st21" d="M704.1,101.2c-4.8,0.6-16.8,1.6-25.9,2.4c-5.2,0.4-8.7,5.5-7.4,10.6c4.9,18.7-1.6,48.9-0.4,59.1
		c1.4,12.2-6,16.9-6,16.9c7.3-1.6,12.3-4.5,12.1-8.2c-1-21.9,0.4-50.6,1.7-69.4c5.3-5.8,20.8-6.5,28.3-6.4c2.9,0,5.3-2,5.9-4.9
		c0.7-3.5,0.5-7,0.1-9.9C712.4,91.6,712.4,100.3,704.1,101.2z"/>
	<g>
		<polygon class="st28" points="542.3,1082.6 583.7,1058.7 625,1082.6 583.7,1106.5 		"/>
		<g>
			<polygon class="st12" points="583.7,1082.6 583.7,907.6 542.3,883.8 542.3,1058.7 			"/>
			<polygon class="st13" points="583.7,907.6 625,883.8 625,1058.7 583.7,1082.6 			"/>
			<polygon class="st12" points="542.3,883.8 583.7,859.9 625,883.8 583.7,907.6 			"/>
			<polygon class="st13" points="556.8,883.8 583.7,868.3 610.6,883.8 583.7,899.3 			"/>
		</g>
		<g>
			<polygon class="st12" points="583.7,883.6 583.7,862.4 542.3,838.5 542.3,859.8 			"/>
			<polygon class="st13" points="583.7,862.4 625,838.5 625,859.8 583.7,883.6 			"/>
			<polygon class="st12" points="542.3,838.5 583.7,814.6 625,838.5 583.7,862.4 			"/>
		</g>
	</g>
	<g>
		<path class="st28" d="M646.1,1028.8c17.2,9.9,45.1,9.9,62.3,0c17.2-9.9,17.2-26,0-36c-17.2-9.9-45.1-9.9-62.3,0
			C628.9,1002.8,628.9,1018.9,646.1,1028.8z"/>
		<g>
			<path d="M702.2,703.2c0,0-1.1,23.4-2.9,39.1c-1.8,15.7-39.6-12.1-39.6-12.1v-17.9L702.2,703.2z"/>
			<g>
				<path d="M682.1,993.9c-0.6,1.4-10.4,13.3-20.2,16.3c-4.3,1.3-7.1,1.5-9,1.2c-1.9-0.2-3.1-2.2-2.4-4c1.7-4.7,6.5-14.6,18.8-20.7
					C685.9,978.5,682.1,993.9,682.1,993.9z"/>
				<path d="M685.3,998.4c0,0-3.7,8.7-4.8,15.9c-0.7,4.4,1.7,10.2,3.7,14c1.2,2.4,4.4,2.9,6.4,1.1c3.2-2.9,7.3-8,8-15.2
					c1.1-12.2,0-14.3,0-14.3L685.3,998.4z"/>
				<path class="st7" d="M708.9,850.9c0,0,1.3,15.4,0,32.4c-1.3,17-5.9,96.7-6.7,115.9c0,0,0.4,5.8-10.8,4.5
					c-11.2-1.3-10.3-7.7-10.3-7.7s-15.8-0.2-16.3-9.5c-0.5-9.3-16.2-111-16.2-147.6L708.9,850.9z"/>
				<g>
					<path class="st15" d="M642.8,771.2l-7.7,12l-26.6,32.1c0,0,0.9,3,4.2,3.8c2.6,0.6,24.9-20.7,34.6-30.1c2.6-2.5,3-6.4,1-9.4
						L642.8,771.2z"/>
					<path class="st21" d="M657.9,722.1c0,0-12.3-0.3-16.5,17.4s-7.6,40-3.9,41.8c11.2,5.5,18.2-0.9,18.2-0.9L657.9,722.1z"/>
					<path class="st14" d="M654.2,722.8c2.1-0.9,4.4-1,6.6-0.4c10.5,3,49.8,14.5,56.3,20.1c7.5,6.4-11.2,42.4-11,54.2
						c0.3,11.8,1.6,25.7,2.6,38.5c1,12.8,2.5,19.9-8,25.3c-10.5,5.4-28.4,5.7-41.8-4.5c-13.4-10.2-11-17.2-10.4-24.6
						c0.6-7.4,5.1-39.5,4.7-48.6c0,0-4.7-3.5-8.2-9.4c-3.5-6,2.7-16.9,5.2-24.1c2.6-7.1-1.4-15.3-0.6-21.1
						C650.1,725.2,652,723.8,654.2,722.8z"/>
					<path class="st16" d="M666.8,735.1c-0.8,6.5,5.1,12.6,13.3,13.6c8.2,1,15.5-3.4,16.3-9.8c0.8-6.5-5.1-12.6-13.3-13.6
						C674.9,724.2,667.6,728.6,666.8,735.1z"/>
					<path class="st15" d="M671,735.7c-0.6,4.6,3.7,9,9.5,9.7c5.8,0.7,11-2.4,11.6-7c0.6-4.6-3.7-9-9.5-9.7
						C676.8,727.9,671.6,731,671,735.7z"/>
					<path class="st15" d="M676.8,720.4c0,0,7.1-5.8,8.5-2.9c1.4,3,2.5,15.6,2.5,15.6l-14.1,3.8l2.1-12.9
						C675.9,724.1,673.1,721.8,676.8,720.4z"/>
					<path class="st15" d="M654.8,706.5c0.7,11.6,10.7,20.5,22.3,19.8c11.6-0.7,20.5-10.7,19.8-22.3c-0.7-11.6-10.7-20.5-22.3-19.8
						C662.9,685,654.1,694.9,654.8,706.5z"/>
					<path class="st17" d="M686.3,721.2c0.1,0.7,0.3,1.4,0.4,2.1c-1.4,7.3-12.4,10.5-12.4,10.5l1.6-9.7c0,0-1.3-1.1-1-2.3
						C679.3,720.5,684.7,719.3,686.3,721.2z"/>
					<path class="st15" d="M654.8,706.5c0.7,11.6,10.7,20.5,22.3,19.8c11.6-0.7,20.5-10.7,19.8-22.3c-0.7-11.6-10.7-20.5-22.3-19.8
						C662.9,685,654.1,694.9,654.8,706.5z"/>
					<polygon class="st15" points="727.7,794.4 725.3,850.8 717.1,851.6 711.7,800.9 					"/>
					<path class="st21" d="M700.6,789.7c0.4-2,4.1-3.6,4.6-6.1c2.8-13.1,3.5-32.5,3.5-32.5l2.3,26.4c-2.7,7.8-4.9,15-4.8,19.2
						c0.2,6.9,0.7,14.6,1.3,22.3l0,0C707.5,819.1,697.9,801.7,700.6,789.7z"/>
					<path class="st14" d="M715.6,741.4c0,0,6.6,2.5,10.3,22.7c3.7,20.2,6.5,40.5-0.1,43.1c-6.6,2.6-12.2,4.6-14.1-0.8
						c-2-5.4-3.2-31.5-3.4-40.9C707.9,756.2,707.6,743.3,715.6,741.4z"/>
					<path class="st15" d="M610.5,813c0,0-3.6,1.3-6.1,4.1c-2.1,2.3-3.3,4.3-4.2,5.6c-2.1,3.1-3.8,9.7-2.5,10.5
						c1.3,0.8,8.4-11.1,9.6-8.3c1.2,2.8,0,5.3,1.5,5.4c1.5,0,6.6-12,10.7-15.7C623.4,810.9,610.5,813,610.5,813z"/>
				</g>
				<path class="st10" d="M681.1,996c0,0-2,0-4.5-0.5l0,0l-3.1-123.9L681.1,996z"/>
			</g>
			<g>
				<path class="st18" d="M693,929.1l4.4-5.7l46.1-26.7c1.5-0.9,2.7-3.1,2.7-5.1l0-37.7l2.7-3.5l-2.5-1.4l0,0
					c-0.5-0.3-1.1-0.3-1.8,0.1l-52.2,30.2c-1.5,0.9-2.7,3.1-2.7,5.1l0,41.1c0,1.1,0.4,1.9,1,2.2l0,0L693,929.1z"/>
				<path class="st22" d="M724.9,907.5l3.3-1.9l18-31.2l0-20.5l2.7-3.5l-2.5-1.4l0,0c-0.5-0.3-1.1-0.3-1.8,0.1l-52.2,30.2
					c-0.8,0.5-1.5,1.3-2,2.3L724.9,907.5z"/>
				<path class="st22" d="M747.6,851.9l1.2-1.5l-2.5-1.4l0,0c-0.5-0.3-1.1-0.3-1.8,0.1l-0.9,0.5L747.6,851.9z"/>
				<path class="st18" d="M691.8,879.6c-1.2,0.9-2.1,2.7-2.2,4.4l5.1,2.9l2.4-4.2L691.8,879.6z"/>
				<path class="st1" d="M694.7,880.7l52.2-30.2c1.5-0.9,2.7,0,2.7,2l0,41.1c0,2-1.2,4.3-2.7,5.1L694.8,929c-1.5,0.9-2.7-0.1-2.7-2
					l0-41.1C692,883.9,693.2,881.6,694.7,880.7z"/>
			</g>
			<path class="st15" d="M725.3,850.3c0,0,2.2,13.2,1.8,17.4c-0.3,4.2-2.6,11.2-4.3,11c-1.7-0.1-0.1-16.9-3.1-15.3
				c-3,1.7-3.3,4.5-4.7,3.5c-1.4-1,2.4-15.4,1.4-21.6C715.4,839.1,725.3,850.3,725.3,850.3z"/>
			<path class="st17" d="M667.7,707.1c-10.6,3.7-12.6,1.5-12.7,1.3c-0.1-0.6-0.2-1.3-0.2-1.9c-0.1-2.3,0.1-4.6,0.7-6.7l27.4-3.7
				C682.9,696.1,678.6,703.3,667.7,707.1z"/>
			<path d="M654,685.6c2.5-2.1,11.5-12.7,27.6-10.2c10.1,1.6,18.5,8.4,20.4,24.1c1.3,10.5-2.6,20.9-9.7,28.6
				c-0.4-0.2-0.8-0.3-1.1-0.6c-4-2.7-4.5-4.1-4.5-4.1l-0.9-8c0-1.1,0.9-2.1,2-2.2c0.9-0.1,1.9-0.5,2.9-1.8c2.3-3,1.2-7.7-3.4-7.9
				c-2.4-0.1-3.4-1.4-3.7-2.6c-0.3-1.1-1.4-1.7-2.5-1.3c-5.3,1.9-18.2,6-26.6,3.6C644,700.1,651.5,687.7,654,685.6z"/>
			<path class="st16" d="M666,716.6l-6.4-1.8c0,0,3.1,4.8,7.6,6.1c4.5,1.2,5.2-2.6,5.2-2.6L666,716.6z"/>
			<polygon class="st22" points="714.3,866.5 719.8,863.4 717.7,866.7 715,867.8 			"/>
		</g>
	</g>
	<g>
		<path class="st28" d="M312.2,1012.9c23.1,13.4,60.7,13.4,83.8,0c23.1-13.4,23.1-35,0-48.4c-23.1-13.4-60.7-13.4-83.8,0
			C289.1,977.9,289.1,999.6,312.2,1012.9z"/>
		<g>
			<path d="M317.8,970.6c-4.1,1.8-6.7,6.4-6.4,11.3c0.2,2.3,0.4,4.5,0.9,5.5c1.3,2.8,5.6,6.5,12.5,3.8c6.9-2.7,22.1-17.1,22.7-26.4
				C348.6,947.4,328.7,966,317.8,970.6z"/>
			<path d="M358.2,999.5c0,0-1.6,10-0.8,11.9c0.8,1.8,5.6,5.8,12.6,4.9c7.1-0.9,27.4-7.9,31.9-21.3c7-20.8-39.2,1.6-39.2,1.6
				L358.2,999.5z"/>
			<path class="st18" d="M378.1,838.8l1.6,156.9c-0.2,5.5-3.7,10.1-8.5,10.9c-0.6,0.1-1.2,0.2-1.9,0.2c-4.9,0.4-7.7-1.7-9.3-3.9
				c-1.3-1.8-2-4-2.1-6.3l-2-67l-10-59.9l-13.8,106c-0.2,2.9-1.6,5.5-3.8,7c-1.5,1-3.6,1.8-6.3,1.7c-4-0.1-6.7-2.2-8.4-4.1
				c-1.3-1.5-2-3.6-2-5.7l5.5-63.8l2-81.4L378.1,838.8z"/>
			<path class="st15" d="M357.7,698.3l-2.5,14.3c0,0-0.1,4.9,5.4,6.2c5.4,1.4,7.1-2.2,7.1-2.2l2.5-16.1L357.7,698.3z"/>
			<path class="st15" d="M387.8,690.5c-3.9,12.2-15.8,19.4-26.7,15.9c-10.9-3.5-16.6-16.2-12.7-28.5c3.9-12.2,15.8-19.4,26.7-15.9
				C385.9,665.5,391.6,678.2,387.8,690.5z"/>
			<path class="st14" d="M358.4,712.8c-0.4-0.2-23.1-14.8-31.5,0.5c-13.7,25-3.7,53.6-8.6,115.8c-0.8,10.4,14,16.7,21,20.7
				c6.2,3.6,13.2,5.7,20.4,5.8c7.1,0.1,20.7-6.3,20.2-15.5c-2.3-42.7,1.5-78.7,5-113.7C384.9,726.5,380.6,721.8,358.4,712.8z"/>
			<path class="st29" d="M345.8,869.7l-13.8,106c-0.2,2.9-1.6,5.5-3.8,7c-0.4,0.2-0.8,0.5-1.2,0.7c2.9-2.2,11.3-91.1,12.8-101
				C341.3,872.4,345.8,869.7,345.8,869.7z"/>
		</g>
		<polygon class="st15" points="431.1,717.6 443.4,677.1 436.9,674.4 422.4,706.1 		"/>
		<polygon class="st15" points="306.6,685.7 315.8,643.6 323.2,643.6 320.4,678.6 		"/>
		<path class="st14" d="M384.9,726.5c0,0,22.2,4.4,36.3-21.4c1.2-2.3,4.5-2.6,5.9-0.6c2.3,3.4,5.3,8.7,3.7,14.4
			c-6.9,25.3-44.2,30.8-50.9,45.5C373.2,779.1,384.9,726.5,384.9,726.5z"/>
		<path class="st14" d="M344,707.6c0,0-17.6,1.4-20.1-13.9c-1.3-7.8-1.7-12.5-1.8-15.2c-0.1-1.8-1.6-3.2-3.4-3
			c-4.2,0.5-10.7,1.8-11.6,4.6c-1.3,4.2-3.8,24.9,13.6,56.6C332,757.5,344,707.6,344,707.6z"/>
		<path class="st15" d="M315.8,643.7l0.2-4.8c0.1-1.7,0.6-3.3,1.4-4.8l4.9-8l1.3-1.6c1.2-1.5,3.3-1.8,4.9-0.8l1.1,0.7
			c1.4,0.9,2.2,2.5,2.1,4.2l-2.5,6.8l3.2-0.6c0.6-0.1,1.2,0.3,1.3,0.9l0,0c0.1,0.5-0.2,1-0.7,1.2l-5.2,2.1l-4.7,6.7L315.8,643.7z"/>
		<path class="st15" d="M443.6,677.3l1.5-4.6c0.5-1.6,0.6-3.3,0.3-5l-1.9-9.2l-0.7-1.9c-0.6-1.8-2.4-2.8-4.3-2.4l-1.3,0.3
			c-1.6,0.4-3,1.6-3.4,3.2l0.1,7.3l-2.8-1.7c-0.5-0.3-1.2-0.1-1.6,0.4l0,0c-0.3,0.5-0.2,1.1,0.2,1.4l4.2,3.7l2.4,8.9L443.6,677.3z"
			/>
		<path class="st21" d="M374.5,757.1c-2,9.2,3.7,80.9-14.8,98.6c7.1,0.1,20.7-6.3,20.2-15.5c-1.5-28.6-0.3-54.2,1.7-78.6
			c7.2-9.4,27.2-15.4,39.7-27.4C420.4,734.5,376.5,748,374.5,757.1z"/>
		<path class="st16" d="M350.2,708.8l3.2-3.2c0,0,5.2,5.3,9.4,6.2c0,0,5,1.4,7.5,1.5l2,5.6C372.2,718.9,355.7,717.8,350.2,708.8z"/>
		<path class="st30" d="M372.9,690.8c0.9,0,1.7-0.4,2.2-1.1c0.9-1.3,0.3-7,3-7.9c4.2-1.5,14,3.7,15.1-11.3c0.6-7.8-3.2-9.9-3.2-14.1
			c0,0,0.3,2.1-19.7,0.8c-20.1-1.3-26.6,16.5-27.1,25c-0.5,8.5,3.6,22.4,17.3,24.3c2.3,0.3,11.8-7.4,11.6-8.4c-0.2-1-3.8-1-3.3-3.9
			C369.2,691.8,370.7,690.9,372.9,690.8z"/>
	</g>
	<g>
		<g>
			<path class="st26" d="M297.5,279.9l-105.8-61.1c-2.1-1.2-4-1.3-5.5-0.4c0,0,0-0.1,0-0.1l-10.3,5.9c0,0,4.5,1.7,7.2,2.6v77
				c0,6.3,3.8,13.5,8.5,16.3l101.1,58.4v9l10.4-6l-0.1,0c1.8-1.1,2.9-3.4,2.9-6.8v-78.6C306,289.9,302.2,282.6,297.5,279.9z"/>
			<path class="st27" d="M287.1,387.2l-105.8-61.1c-4.7-2.7-8.5-10-8.5-16.3v-78.6c0-6.3,3.8-9.1,8.5-6.4l105.8,61.1
				c4.7,2.7,8.5,10,8.5,16.3v78.6C295.6,387.1,291.8,390,287.1,387.2z"/>
			<path class="st16" d="M287.1,285.9l-105.8-61.1c-2.7-1.5-5-1.2-6.6,0.4c1.1-0.1,2.4,0.2,3.8,1l105.8,61.1
				c4.7,2.7,8.5,10,8.5,16.3v78.6c0,2.7-0.7,4.7-1.9,6c2.8-0.2,4.8-2.9,4.8-7.4v-78.6C295.6,295.9,291.8,288.6,287.1,285.9z"/>
		</g>
		<g>
			<path class="st16" d="M216.9,299.1c0,4.6-3.2,6.4-7.1,4.1c-3.9-2.3-7.1-7.8-7.1-12.4c0-4.6,3.2-6.4,7.1-4.1
				C213.7,289,216.9,294.5,216.9,299.1z"/>
			<path class="st16" d="M238.5,311.6c0,4.6-3.2,6.4-7.1,4.1c-3.9-2.3-7.1-7.8-7.1-12.4c0-4.6,3.2-6.4,7.1-4.1
				C235.3,301.5,238.5,307,238.5,311.6z"/>
			<path class="st16" d="M260.1,324c0,4.6-3.2,6.4-7.1,4.1c-3.9-2.3-7.1-7.8-7.1-12.4c0-4.6,3.2-6.4,7.1-4.1
				C256.9,314,260.1,319.5,260.1,324z"/>
		</g>
	</g>
</g>
</svg>
