<?xml version="1.0" encoding="utf-8"?>
<!-- Generator: Adobe Illustrator 23.0.3, SVG Export Plug-In . SVG Version: 6.00 Build 0)  -->
<svg version="1.1" id="Layer_1" xmlns="http://www.w3.org/2000/svg" xmlns:xlink="http://www.w3.org/1999/xlink" x="0px" y="0px"
	 viewBox="0 0 273.2 279" style="enable-background:new 0 0 273.2 279;" xml:space="preserve">
<style type="text/css">
	.st0{fill:#EC5569;}
	.st1{fill:#FFF5F5;}
</style>
<g>
	<path class="st0" d="M221.8,0H51.4C23,0,0,23,0,51.4v111.8c0,28.4,23,51.4,51.4,51.4h24.5c1.2,0,2.1,0.9,2.1,2.1v55.2
		c0,6.5,8,9.7,12.4,4.9l57.9-61.5c0.4-0.4,1-0.7,1.5-0.7h72.1c28.4,0,51.4-23,51.4-51.4V51.4C273.2,23,250.2,0,221.8,0z"/>
	<path class="st0" d="M194.3,66.7L194.3,66.7c-13-13-34.2-13-47.2,0l-7.4,7.4c-1.8,1.8-4.6,1.8-6.4,0l-7.2-7.2
		c-13-13-34.2-13-47.2,0l0,0c-13,13-13,34.2,0,47.2l54.5,54.5c1.8,1.8,4.6,1.8,6.4,0l54.6-54.6C207.4,100.9,207.4,79.7,194.3,66.7z"
		/>
	<path class="st1" d="M194.3,66.7L194.3,66.7c-13-13-34.2-13-47.2,0l-7.4,7.4c-1.8,1.8-4.6,1.8-6.4,0l-7.2-7.2
		c-13-13-34.2-13-47.2,0l0,0c-13,13-13,34.2,0,47.2l54.5,54.5c1.8,1.8,4.6,1.8,6.4,0l54.6-54.6C207.4,100.9,207.4,79.7,194.3,66.7z"
		/>
</g>
</svg>
