<?xml version="1.0" encoding="utf-8"?>
<!-- Generator: Adobe Illustrator 23.0.3, SVG Export Plug-In . SVG Version: 6.00 Build 0)  -->
<svg version="1.1" id="Layer_1" xmlns="http://www.w3.org/2000/svg" xmlns:xlink="http://www.w3.org/1999/xlink" x="0px" y="0px"
	 viewBox="0 0 273.2 279" style="enable-background:new 0 0 273.2 279;" xml:space="preserve">
<style type="text/css">
	.st0{fill:#A2A7B0;}
	.st1{fill:#D8DFEA;}
</style>
<g>
	<path class="st0" d="M154.9,148.8c0,10-8.1,18.2-18.2,18.2c-10,0-18.2-8.1-18.2-18.2c0-10,8.1-18.2,18.2-18.2
		C146.7,130.6,154.9,138.7,154.9,148.8z"/>
	<path class="st0" d="M24.6,268.8c0,5.7-4.6,10.3-10.3,10.3C8.6,279,4,274.4,4,268.8c0-5.7,4.6-10.3,10.3-10.3
		C20,258.5,24.6,263.1,24.6,268.8z"/>
	<path class="st0" d="M269.2,268.8c0,5.7-4.6,10.3-10.3,10.3s-10.3-4.6-10.3-10.3c0-5.7,4.6-10.3,10.3-10.3S269.2,263.1,269.2,268.8
		z"/>
	<path class="st1" d="M244.2,274.9H29.2v-18.5c0-59.4,48.1-107.5,107.5-107.5c59.4,0,107.5,48.1,107.5,107.5L244.2,274.9
		L244.2,274.9z"/>
	<path class="st0" d="M14.5,258.5h244.4V279H14.5V258.5z"/>
</g>
</svg>
