<?xml version="1.0" encoding="utf-8"?>
<!-- Generator: Adobe Illustrator 23.0.3, SVG Export Plug-In . SVG Version: 6.00 Build 0)  -->
<svg version="1.1" id="Layer_1" xmlns="http://www.w3.org/2000/svg" xmlns:xlink="http://www.w3.org/1999/xlink" x="0px" y="0px"
	 viewBox="0 0 273.2 279" style="enable-background:new 0 0 273.2 279;" xml:space="preserve">
<style type="text/css">
	.st0{fill:#F76F1E;}
	.st1{fill:#FF0000;}
	.st2{fill:#0065A3;}
	.st3{fill:#FFDB15;}
</style>
<g>
	<g>
		<path class="st0" d="M223.6,29.8H49.6c-6.5,0-11.9,5.3-11.9,11.9v225.5c0,6.5,5.3,11.9,11.9,11.9h174.1c6.5,0,11.9-5.3,11.9-11.9
			V41.7C235.5,35.1,230.2,29.8,223.6,29.8z"/>
	</g>
	<g>
		<path class="st1" d="M57.4,29.8h-7.8c-6.5,0-11.9,5.3-11.9,11.9v225.5c0,6.5,5.3,11.9,11.9,11.9h7.8V29.8z"/>
	</g>
	<g>
		<path class="st2" d="M207.8,25.9h-39.6c-2.2,0-4,1.8-4,4v59.3c0,1.4,0.8,2.7,2,3.4c1.2,0.7,2.8,0.7,4-0.1L188,81.9l17.7,10.6
			c0.6,0.4,1.3,0.6,2,0.6c0.7,0,1.3-0.2,2-0.5c1.2-0.7,2-2,2-3.4V29.8C211.8,27.6,210,25.9,207.8,25.9z"/>
	</g>
	<g>
		<path class="st3" d="M186,196h-0.3c0-0.1,0-0.3-0.1-0.4l-22.4-70.9c2.8-0.5,5-2.9,5-5.8c0-3.3-2.7-5.9-5.9-5.9h-31.6
			c-3.3,0-5.9,2.7-5.9,5.9c0,2.9,2.1,5.4,5,5.8l-22.4,70.9c0,0.1,0,0.3-0.1,0.4h-0.3c-3.3,0-5.9,2.7-5.9,5.9c0,3.3,2.7,5.9,5.9,5.9
			h15.8c3.3,0,5.9-2.7,5.9-5.9c0-2.9-2.1-5.4-5-5.8l4.4-13.9h36.7l4.4,13.9c-2.8,0.5-5,2.9-5,5.8c0,3.3,2.7,5.9,5.9,5.9H186
			c3.3,0,5.9-2.7,5.9-5.9C191.9,198.6,189.2,196,186,196z M133,166.3l13-41.1c0-0.1,0-0.3,0.1-0.4h0.6c0,0.1,0,0.3,0.1,0.4l13,41.1
			H133z"/>
	</g>
</g>
</svg>
