<?xml version="1.0" encoding="utf-8"?>
<!-- Generator: Adobe Illustrator 23.0.3, SVG Export Plug-In . SVG Version: 6.00 Build 0)  -->
<svg version="1.1" id="Layer_1" xmlns="http://www.w3.org/2000/svg" xmlns:xlink="http://www.w3.org/1999/xlink" x="0px" y="0px"
	 viewBox="0 0 273.2 279" style="enable-background:new 0 0 273.2 279;" xml:space="preserve">
<style type="text/css">
	.st0{fill:#603813;}
	.st1{fill:#F76F1E;}
	.st2{fill:#E6E6E6;}
	.st3{fill:#FFFFFF;}
	.st4{fill:#A4AAB1;}
	.st5{fill:#BBC2CA;}
	.st6{fill:#11E1FF;}
	.st7{fill:#00DDC2;}
	.st8{fill:#662D91;}
	.st9{font-family:'Javatages';}
	.st10{font-size:16.5509px;}
	.st11{fill:#FCEE21;}
</style>
<g>
	<g>
		<g>
			<g>
				<path class="st0" d="M231.4,270.3c0,5.4-2,8.8-7.4,8.8H51.7c-5.4,0-9.9-3.3-9.9-8.8V42.5c0-5.4,4.5-8.8,9.9-8.8H224
					c5.4,0,7.4,3.4,7.4,8.8V270.3z"/>
				<g>
					
						<rect x="33.5" y="80.7" transform="matrix(3.783737e-02 -0.9993 0.9993 3.783737e-02 -28.719 294.9395)" class="st1" width="210.6" height="163.3"/>
					<g>
						
							<rect x="33.5" y="77.2" transform="matrix(3.783737e-02 -0.9993 0.9993 3.783737e-02 -25.1885 291.5401)" class="st2" width="210.6" height="163.3"/>
						
							<rect x="56.3" y="49.4" transform="matrix(0.9966 -8.276296e-02 8.276296e-02 0.9966 -12.3311 11.9497)" class="st2" width="163.3" height="210.6"/>
						<g>
							<rect x="55.5" y="49.1" class="st3" width="163.9" height="209.3"/>
						</g>
					</g>
				</g>
			</g>
			<g>
				<path class="st4" d="M161.4,21.6c0-4-8.4-4.2-7.9-8c0.9-6.8-6.7-13.2-15.1-13.6v0c-0.1,0-0.2,0-0.3,0c-0.1,0-0.2,0-0.3,0v0
					c-8.4,0.5-15.9,6.8-15.1,13.6c0.5,3.7-7.9,4-7.9,8c0,11.7,10.2,21.1,22.9,21.6v0c0.1,0,0.2,0,0.3,0c0.1,0,0.2,0,0.3,0v0
					C151.2,42.8,161.4,33.3,161.4,21.6z M138.1,18.3c-3.1-0.3-5.5-2.8-5.5-5.8c0-3,2.4-5.5,5.5-5.8c3.1,0.3,5.5,2.8,5.5,5.8
					C143.6,15.5,141.2,18,138.1,18.3z"/>
				<g>
					<rect x="84.7" y="24.2" class="st4" width="108.1" height="33.5"/>
					<rect x="84.7" y="33.7" class="st5" width="108.1" height="15.4"/>
				</g>
			</g>
		</g>
	</g>
	<g>
		<g>
			<rect x="62.6" y="82.7" class="st6" width="33.3" height="32.4"/>
			<rect x="102.1" y="82.7" class="st7" width="33.3" height="32.4"/>
			<rect x="141.5" y="82.7" class="st8" width="33.3" height="32.4"/>
			<rect x="180.9" y="82.7" class="st6" width="33.3" height="32.4"/>
		</g>
		<g>
			<rect x="62.6" y="126.3" class="st6" width="33.3" height="32.4"/>
			<rect x="102.1" y="126.3" class="st6" width="33.3" height="32.4"/>
			<rect x="141.5" y="126.3" class="st6" width="33.3" height="32.4"/>
			<rect x="180.9" y="126.3" class="st6" width="33.3" height="32.4"/>
		</g>
		<g>
			<rect x="62.6" y="170" class="st8" width="33.3" height="32.4"/>
			<rect x="102.1" y="170" class="st6" width="33.3" height="32.4"/>
			<rect x="141.5" y="170" class="st6" width="33.3" height="32.4"/>
			<rect x="180.9" y="170" class="st7" width="33.3" height="32.4"/>
		</g>
		<g>
			<rect x="62.6" y="213.6" class="st6" width="33.3" height="32.4"/>
			<rect x="102.1" y="213.6" class="st6" width="33.3" height="32.4"/>
			<rect x="141.5" y="213.6" class="st6" width="33.3" height="32.4"/>
			<rect x="180.9" y="213.6" class="st8" width="33.3" height="32.4"/>
		</g>
		<text transform="matrix(1 0 0 1 119.1736 74.3344)" class="st9 st10">Month</text>
		<path class="st11" d="M159.1,90.1l2.2,4.5c0.2,0.3,0.4,0.5,0.8,0.6l4.9,0.7c0.9,0.1,1.2,1.2,0.6,1.8l-3.6,3.5
			c-0.2,0.2-0.4,0.6-0.3,0.9l0.8,4.9c0.1,0.9-0.8,1.5-1.5,1.1l-4.4-2.3c-0.3-0.2-0.7-0.2-1,0l-4.4,2.3c-0.8,0.4-1.7-0.2-1.5-1.1
			l0.8-4.9c0.1-0.3-0.1-0.7-0.3-0.9l-3.6-3.5c-0.6-0.6-0.3-1.7,0.6-1.8l4.9-0.7c0.3-0.1,0.6-0.3,0.8-0.6l2.2-4.5
			C157.6,89.4,158.7,89.4,159.1,90.1z"/>
		<path class="st11" d="M80.3,177.4l2.2,4.5c0.2,0.3,0.4,0.5,0.8,0.6l4.9,0.7c0.9,0.1,1.2,1.2,0.6,1.8l-3.6,3.5
			c-0.2,0.2-0.4,0.6-0.3,0.9l0.8,4.9c0.1,0.9-0.8,1.5-1.5,1.1l-4.4-2.3c-0.3-0.2-0.7-0.2-1,0l-4.4,2.3c-0.8,0.4-1.7-0.2-1.5-1.1
			l0.8-4.9c0.1-0.3-0.1-0.7-0.3-0.9l-3.6-3.5c-0.6-0.6-0.3-1.7,0.6-1.8l4.9-0.7c0.3-0.1,0.6-0.3,0.8-0.6l2.2-4.5
			C78.8,176.6,79.9,176.6,80.3,177.4z"/>
		<path class="st11" d="M198.5,221.1l2.2,4.5c0.2,0.3,0.4,0.5,0.8,0.6l4.9,0.7c0.9,0.1,1.2,1.2,0.6,1.8l-3.6,3.5
			c-0.2,0.2-0.4,0.6-0.3,0.9l0.8,4.9c0.1,0.9-0.8,1.5-1.5,1.1l-4.4-2.3c-0.3-0.2-0.7-0.2-1,0l-4.4,2.3c-0.8,0.4-1.7-0.2-1.5-1.1
			l0.8-4.9c0.1-0.3-0.1-0.7-0.3-0.9l-3.6-3.5c-0.6-0.6-0.3-1.7,0.6-1.8l4.9-0.7c0.3-0.1,0.6-0.3,0.8-0.6l2.2-4.5
			C197,220.3,198.2,220.3,198.5,221.1z"/>
	</g>
</g>
</svg>
