<?xml version="1.0" encoding="utf-8"?>
<!-- Generator: Adobe Illustrator 23.0.3, SVG Export Plug-In . SVG Version: 6.00 Build 0)  -->
<svg version="1.1" id="Layer_1" xmlns="http://www.w3.org/2000/svg" xmlns:xlink="http://www.w3.org/1999/xlink" x="0px" y="0px"
	 viewBox="0 0 273.2 279" style="enable-background:new 0 0 273.2 279;" xml:space="preserve">
<style type="text/css">
	.st0{fill:#FF0000;}
	.st1{fill:#D8DFEA;}
	.st2{fill:#334A5E;}
	.st3{fill:#40596B;}
</style>
<g>
	<path class="st0" d="M262.1,101.1c0,23.3-18.8,42.1-42.1,42.1c-23.3,0-42.1-18.8-42.1-42.1c0-23.3,18.8-42.1,42.1-42.1
		C243.2,59,262.1,77.9,262.1,101.1z"/>
	<path class="st1" d="M255.5,174.5L85.7,198.9l-31.7-90.5l148-86.7L255.5,174.5z"/>
	<path class="st2" d="M256.4,181.6c-9,3.2-18.9-1.6-22.1-10.7L187.7,37.7c-3.2-9,1.6-18.9,10.7-22.1c9-3.2,18.9,1.6,22.1,10.7
		L267,159.5C270.2,168.5,265.4,178.4,256.4,181.6z"/>
	<path class="st0" d="M52.8,181l-24.4,8.5c-7.6,2.7-16-1.4-18.6-9L6.1,170c-2.7-7.6,1.4-16,9-18.6l24.4-8.5L52.8,181z"/>
	<path class="st3" d="M66.7,199.6c-3.9,1.4-7.9,2-11.8,1.9l8.5,24.3c1.3,3.8,1.7,7.8,1.1,11.8l-1.8,11.3
		c-2.9,18.1,14.6,32.7,31.9,26.7c8.4-2.9,14.5-10.3,15.9-19.1l0.4-2.8c3.6-22.8,2.3-46.1-3.8-68.3L66.7,199.6z"/>
	<path class="st2" d="M77.5,223.7c-4.2,1.5-6.7,5.6-6.3,10c0.1,1.1,0.1,2.1,0,2.8l-1.3,8.2c-2.1,13.1,10.6,23.7,23.1,19.3
		c6.1-2.1,10.5-7.4,11.6-13.8l0.3-2c1.1-7.1,1.6-14.3,1.4-21.5c-0.2-6.4-6.6-10.7-12.6-8.6L77.5,223.7z"/>
	<path class="st2" d="M110.4,197l-32,11.2c-17.4,6.1-36.5-3.1-42.6-20.5L22,148.2c-6.1-17.4,3.1-36.5,20.5-42.6l32-11.2
		c1.6-0.6,3.3,0.3,3.9,1.9l33.9,96.8C112.9,194.7,112,196.4,110.4,197z"/>
	<path class="st3" d="M67.7,139.6l-20.2,7.1c-4.1,1.4-8.7-0.7-10.1-4.9c-1.4-4.1,0.7-8.7,4.9-10.1l20.2-7.1
		c4.1-1.4,8.7,0.7,10.1,4.9C74,133.7,71.8,138.2,67.7,139.6z"/>
	<path class="st3" d="M74.5,159.1l-20.2,7.1c-4.1,1.4-8.7-0.7-10.1-4.9c-1.4-4.1,0.7-8.7,4.9-10.1l20.2-7.1
		c4.1-1.4,8.7,0.7,10.1,4.9C80.8,153.1,78.6,157.6,74.5,159.1z"/>
</g>
</svg>
