<?xml version="1.0" encoding="utf-8"?>
<!-- Generator: Adobe Illustrator 16.0.0, SVG Export Plug-In . SVG Version: 6.00 Build 0)  -->
<!DOCTYPE svg PUBLIC "-//W3C//DTD SVG 1.1//EN" "http://www.w3.org/Graphics/SVG/1.1/DTD/svg11.dtd">
<svg version="1.1" id="Layer_2" xmlns="http://www.w3.org/2000/svg" xmlns:xlink="http://www.w3.org/1999/xlink" x="0px" y="0px"
	 width="1510.276px" height="1344.212px" viewBox="0 0 1510.276 1344.212" enable-background="new 0 0 1510.276 1344.212"
	 xml:space="preserve">
<g>
	<g>
		<g>
			<g>
				<path fill="#F76F1E" d="M947.338,1002.402c0-13.456,10.906-24.362,24.363-24.362c13.455,0,24.371,10.906,24.371,24.362
					c0,13.457-10.916,24.368-24.371,24.368C958.244,1026.771,947.338,1015.859,947.338,1002.402z"/>
				<path fill="#F76F1E" d="M1181.273,822.813c0-8.412,6.814-15.229,15.229-15.229c8.408,0,15.232,6.816,15.232,15.229
					c0,8.409-6.824,15.229-15.232,15.229C1188.088,838.042,1181.273,831.222,1181.273,822.813z"/>
				<path fill="#F76F1E" d="M1069.309,1010.996c3.799,6.284,15.057,6.43,25.143,0.335c10.088-6.1,15.191-16.135,11.393-22.415
					c-3.799-6.283-15.057-6.438-25.145-0.335C1070.613,994.686,1065.514,1004.712,1069.309,1010.996z"/>
				<path fill="#F76F1E" d="M1167.025,941.164c6.121,2.263,14.076-3.871,17.762-13.714c3.68-9.838,1.701-19.654-4.43-21.92
					c-6.119-2.267-14.074,3.862-17.752,13.714C1158.918,929.077,1160.896,938.89,1167.025,941.164z"/>
				<g>
					<linearGradient id="SVGID_1_" gradientUnits="userSpaceOnUse" x1="606.3291" y1="0" x2="606.329" y2="1344.2119">
						<stop  offset="0.1033" style="stop-color:#FFDB15"/>
						<stop  offset="0.7934" style="stop-color:#DDA51C"/>
					</linearGradient>
					<path fill="url(#SVGID_1_)" d="M1142.707,698.121c-47.5-0.527-58.307,46.284-60.635,72.497
						c-0.9,10.173-1.904,27.943-6.184,42.438c-8.984,30.419-32.223,77.545-80.967,77.545c-71.973,0-69.037-93.95-69.037-93.95
						V265.003c0,0,0.893-30.463-1.33-42.404C914.359,167.829,870.707,13.186,684.863,0c-148.711,0-187.9,0-373.602,0
						C127.25,13.186,78.027,147.127,65.707,209.512c-3.871,19.573-5.699,61.899-5.699,61.899v389.896c0,0,0.344,55.49-1.598,75.771
						c-3.734,38.914-9.76,110.72-17.461,198.369c-11.717,133.327-39.197,254.929-39.197,254.929s-14.465,68.29,39.746,86.442
						c42.83,14.341,67.459-18.667,75.871-33.162c2.232-3.851,6.104-21.195,6.104-21.195l71.322-388.059
						c0,0,2.686-17.269,4.369-25.347c4.652-22.26,18.268-64.071,54.949-64.071c49.998,0,43.963,60.071,43.963,60.071
						l-19.051,429.273c0,0-3.846,76.188,55.672,76.188c45.035,0,62.178-29.351,67.861-43.644c0.576-1.442,2.146-8.653,2.705-13.74
						c1.141-10.417,2.523-25.187,2.523-25.187l34.613-392.27c0,0,2.033-28.767,2.602-34.78c1.689-18.118,9.846-54.448,47.928-54.448
						c50.734,0,54.211,64.467,54.211,64.467l49.816,451.254c0,0,6.225,82.043,73.252,82.043c52.521,0,56.02-56.658,55.074-81.198
						c-0.262-6.777-2.262-32.788-2.262-32.788l-27.098-420.007c0,0-0.836-16.576-0.004-22.466
						c2.1-14.929,9.715-41.305,37.293-41.305c28.568,0,37.965,16.14,43.936,27.411c3.205,6.043,4.326,15.766,4.961,24.462
						c3.486,47.64,28.689,203.824,208.959,227.964c39.557,0,155.303-10.232,192.664-117.188
						c37.359-106.956,27.84-150.171,27.84-150.171S1208.637,698.852,1142.707,698.121z"/>
				</g>
				<path fill="#F76F1E" d="M1122.078,983.307c5.189,4.794,15.637,1.932,23.332-6.396s9.73-18.964,4.551-23.75
					c-5.186-4.794-15.633-1.932-23.32,6.392C1118.939,967.88,1116.904,978.521,1122.078,983.307z"/>
				<path fill="#F76F1E" d="M1014.26,1020.035c0.75,5.786,8.893,9.504,18.189,8.302c9.289-1.206,16.217-6.872,15.471-12.653
					c-0.756-5.791-8.895-9.512-18.191-8.306C1020.439,1008.579,1013.512,1014.249,1014.26,1020.035z"/>
				<path fill="#F76F1E" d="M1186.162,885.373c5.248,1.391,11.322-4.318,13.555-12.748s-0.211-16.388-5.461-17.778
					c-5.248-1.391-11.314,4.313-13.555,12.748C1178.475,876.024,1180.912,883.986,1186.162,885.373z"/>
				<path fill="#F76F1E" d="M1208.684,782.508c3.717-0.008,6.717-4.858,6.695-10.825c-0.025-5.979-3.057-10.808-6.773-10.79
					c-3.713,0.013-6.717,4.867-6.695,10.842C1201.943,777.696,1204.971,782.529,1208.684,782.508z"/>
			</g>
			<g>
				<g>
					<path d="M800.279,476.162c-28.266-27.634-66.912-44.683-109.557-44.683c-42.648,0-81.301,17.049-109.561,44.683
						c-29.111-28.467-47.207-68.153-47.207-112.08c0-86.58,70.188-156.764,156.768-156.764s156.764,70.184,156.764,156.764
						C847.486,408.009,829.395,447.695,800.279,476.162z"/>
					<path fill="#FFFFFF" d="M583.771,318.66c0-29.127,23.615-52.743,52.744-52.743c29.127,0,52.744,23.616,52.744,52.743
						c0,29.128-23.617,52.744-52.744,52.744C607.387,371.404,583.771,347.788,583.771,318.66z"/>
				</g>
				<g>
					<path d="M409.092,476.162c-28.26-27.634-66.908-44.683-109.557-44.683s-81.297,17.049-109.557,44.683
						c-29.111-28.467-47.207-68.153-47.207-112.08c0-86.58,70.188-156.764,156.764-156.764c86.584,0,156.764,70.184,156.764,156.764
						C456.299,408.009,438.211,447.695,409.092,476.162z"/>
					<path fill="#FFFFFF" d="M192.588,318.66c0-29.127,23.617-52.743,52.744-52.743s52.744,23.616,52.744,52.743
						c0,29.128-23.617,52.744-52.744,52.744S192.588,347.788,192.588,318.66z"/>
					<path fill="#FFFFFF" d="M295.055,270.313c0-11.379,9.211-20.604,20.602-20.604c11.383,0,20.604,9.225,20.604,20.604
						s-9.221,20.603-20.604,20.603C304.266,290.915,295.055,281.691,295.055,270.313z"/>
				</g>
				
					<path fill="none" stroke="#000000" stroke-width="8" stroke-linecap="round" stroke-linejoin="round" stroke-miterlimit="10" d="
					M566.189,584.577c0,0-24.904,38.459-72.521,38.459c-47.619,0-72.523-38.459-72.523-38.459"/>
			</g>
			<g>
				<path fill="#FF0000" d="M1498.146,474.102c0,47.662-38.629,86.293-86.291,86.293s-86.293-38.631-86.293-86.293
					c0-47.661,38.631-86.292,86.293-86.292S1498.146,426.44,1498.146,474.102z"/>
				<path fill="#D8DFEA" d="M1484.699,624.509l-348.023,49.924l-64.875-185.553l303.313-177.809L1484.699,624.509z"/>
				<path fill="#334A5E" d="M1486.434,638.974c-18.539,6.481-38.832-3.297-45.314-21.839l-95.498-273.141
					c-6.486-18.543,3.291-38.833,21.838-45.318c18.539-6.481,38.824,3.296,45.314,21.844l95.5,273.141
					C1514.758,612.202,1504.98,632.488,1486.434,638.974z"/>
				<path fill="#FF0000" d="M1069.248,637.857l-50.061,17.504c-15.625,5.464-32.717-2.772-38.182-18.396l-7.609-21.779
					c-5.469-15.619,2.773-32.716,18.393-38.176l50.064-17.504L1069.248,637.857z"/>
				<path fill="#40596B" d="M1097.727,675.827c-8.025,2.808-16.225,4.069-24.26,3.962l17.432,49.829
					c2.709,7.757,3.455,16.066,2.168,24.188l-3.666,23.066c-5.889,37.12,29.977,67.085,65.457,54.68
					c17.252-6.035,29.797-21.058,32.664-39.107l0.902-5.661c7.416-46.756,4.73-94.469-7.777-139.95L1097.727,675.827z"/>
				<path fill="#334A5E" d="M1119.854,725.326c-8.52,2.979-13.773,11.417-12.92,20.401c0.211,2.231,0.268,4.283,0.031,5.756
					l-2.658,16.723c-4.27,26.904,21.729,48.628,47.447,39.635c12.504-4.373,21.596-15.263,23.676-28.342l0.648-4.107
					c2.318-14.599,3.279-29.334,2.889-44.009c-0.352-13.109-13.48-22.016-25.861-17.685L1119.854,725.326z"/>
				<path fill="#334A5E" d="M1187.328,670.582l-65.572,22.925c-35.734,12.495-74.832-6.344-87.322-42.077l-28.273-80.841
					c-12.492-35.733,6.348-74.832,42.076-87.331l65.578-22.926c3.262-1.138,6.82,0.58,7.959,3.833l69.389,198.459
					C1192.299,665.882,1190.586,669.444,1187.328,670.582z"/>
				<path fill="#40596B" d="M1099.684,553.012l-41.449,14.49c-8.475,2.962-17.74-1.502-20.703-9.975
					c-2.961-8.469,1.504-17.74,9.977-20.702l41.455-14.49c8.473-2.967,17.734,1.502,20.697,9.975
					C1112.621,540.778,1108.158,550.05,1099.684,553.012z"/>
				<path fill="#40596B" d="M1113.6,592.806l-41.455,14.495c-8.469,2.962-17.74-1.502-20.701-9.976
					c-2.961-8.469,1.506-17.735,9.979-20.697l41.455-14.499c8.475-2.958,17.736,1.502,20.707,9.975
					C1126.541,580.577,1122.072,589.84,1113.6,592.806z"/>
			</g>
		</g>
	</g>
</g>
</svg>
