<?xml version="1.0" encoding="utf-8"?>
<!-- Generator: Adobe Illustrator 16.0.0, SVG Export Plug-In . SVG Version: 6.00 Build 0)  -->
<!DOCTYPE svg PUBLIC "-//W3C//DTD SVG 1.1//EN" "http://www.w3.org/Graphics/SVG/1.1/DTD/svg11.dtd">
<svg version="1.1" id="Layer_2" xmlns="http://www.w3.org/2000/svg" xmlns:xlink="http://www.w3.org/1999/xlink" x="0px" y="0px"
	 width="1455.773px" height="1514.616px" viewBox="0 0 1455.773 1514.616" enable-background="new 0 0 1455.773 1514.616"
	 xml:space="preserve">
<g>
	<g>
		<g>
			<g>
				<path fill="#F76F1E" d="M947.338,1172.807c0-13.456,10.906-24.362,24.363-24.362c13.455,0,24.371,10.906,24.371,24.362
					c0,13.457-10.916,24.368-24.371,24.368C958.244,1197.175,947.338,1186.264,947.338,1172.807z"/>
				<path fill="#F76F1E" d="M1181.271,993.217c0-8.412,6.816-15.229,15.23-15.229c8.408,0,15.232,6.816,15.232,15.229
					c0,8.409-6.824,15.229-15.232,15.229C1188.088,1008.446,1181.271,1001.626,1181.271,993.217z"/>
				<path fill="#F76F1E" d="M1069.307,1181.4c3.799,6.284,15.059,6.43,25.145,0.335c10.088-6.1,15.191-16.135,11.393-22.415
					c-3.799-6.283-15.059-6.438-25.145-0.334C1070.611,1165.09,1065.514,1175.116,1069.307,1181.4z"/>
				<path fill="#F76F1E" d="M1167.025,1111.569c6.121,2.262,14.074-3.872,17.762-13.715c3.68-9.838,1.699-19.654-4.43-21.92
					c-6.121-2.267-14.074,3.862-17.752,13.714C1158.918,1099.481,1160.896,1109.294,1167.025,1111.569z"/>
				<g>
					<linearGradient id="SVGID_1_" gradientUnits="userSpaceOnUse" x1="606.3291" y1="170.4043" x2="606.329" y2="1514.6162">
						<stop  offset="0.1033" style="stop-color:#FFDB15"/>
						<stop  offset="0.7934" style="stop-color:#DDA51C"/>
					</linearGradient>
					<path fill="url(#SVGID_1_)" d="M1142.705,868.525c-47.498-0.527-58.307,46.284-60.633,72.497
						c-0.9,10.173-1.906,27.943-6.186,42.438c-8.982,30.419-32.221,77.545-80.965,77.545c-71.973,0-69.037-93.95-69.037-93.95
						V435.407c0,0,0.893-30.463-1.332-42.404c-10.193-54.77-53.846-209.412-239.689-222.599c-148.711,0-187.9,0-373.602,0
						C127.25,183.591,78.025,317.531,65.707,379.916c-3.871,19.573-5.699,61.899-5.699,61.899v389.896c0,0,0.342,55.49-1.598,75.771
						c-3.734,38.914-9.76,110.721-17.461,198.369C29.23,1239.179,1.752,1360.78,1.752,1360.78s-14.465,68.29,39.746,86.442
						c42.828,14.341,67.459-18.667,75.871-33.162c2.232-3.851,6.104-21.195,6.104-21.195l71.32-388.059
						c0,0,2.688-17.269,4.371-25.347c4.652-22.26,18.268-64.07,54.949-64.07c49.996,0,43.961,60.07,43.961,60.07l-19.049,429.273
						c0,0-3.846,76.188,55.672,76.188c45.035,0,62.178-29.352,67.861-43.645c0.574-1.442,2.146-8.653,2.703-13.739
						c1.143-10.418,2.525-25.188,2.525-25.188l34.613-392.27c0,0,2.033-28.767,2.6-34.78c1.691-18.118,9.848-54.448,47.928-54.448
						c50.736,0,54.213,64.467,54.213,64.467l49.816,451.254c0,0,6.223,82.043,73.252,82.043c52.521,0,56.02-56.658,55.074-81.197
						c-0.262-6.778-2.262-32.789-2.262-32.789l-27.098-420.006c0,0-0.836-16.577-0.004-22.467
						c2.1-14.928,9.713-41.305,37.291-41.305c28.57,0,37.967,16.14,43.938,27.411c3.205,6.043,4.326,15.766,4.961,24.462
						c3.486,47.64,28.689,203.824,208.957,227.964c39.559,0,155.305-10.232,192.666-117.188
						c37.359-106.955,27.84-150.17,27.84-150.17S1208.635,869.256,1142.705,868.525z"/>
				</g>
				<path fill="#F76F1E" d="M1122.076,1153.711c5.189,4.794,15.637,1.932,23.334-6.396c7.695-8.327,9.73-18.964,4.549-23.75
					c-5.184-4.794-15.633-1.931-23.32,6.392C1118.939,1138.284,1116.904,1148.925,1122.076,1153.711z"/>
				<path fill="#F76F1E" d="M1014.258,1190.439c0.752,5.786,8.895,9.504,18.191,8.302c9.289-1.206,16.217-6.872,15.469-12.653
					c-0.754-5.791-8.893-9.512-18.189-8.306C1020.439,1178.983,1013.512,1184.654,1014.258,1190.439z"/>
				<path fill="#F76F1E" d="M1186.16,1055.777c5.25,1.391,11.324-4.318,13.557-12.748c2.23-8.43-0.211-16.388-5.461-17.778
					s-11.314,4.313-13.555,12.748C1178.473,1046.429,1180.912,1054.391,1186.16,1055.777z"/>
				<path fill="#F76F1E" d="M1208.684,952.912c3.717-0.008,6.717-4.858,6.695-10.825c-0.025-5.979-3.057-10.808-6.773-10.79
					c-3.713,0.013-6.717,4.867-6.695,10.842C1201.943,948.101,1204.971,952.934,1208.684,952.912z"/>
			</g>
			<g>
				<g>
					<path d="M800.279,646.566c-28.266-27.634-66.914-44.683-109.557-44.683c-42.648,0-81.301,17.049-109.563,44.683
						c-29.109-28.467-47.205-68.153-47.205-112.08c0-86.58,70.188-156.764,156.768-156.764s156.764,70.184,156.764,156.764
						C847.486,578.413,829.393,618.1,800.279,646.566z"/>
					<circle fill="#FFFFFF" cx="636.515" cy="489.064" r="52.743"/>
				</g>
				<g>
					<path d="M409.092,646.566c-28.262-27.634-66.908-44.683-109.557-44.683s-81.297,17.049-109.557,44.683
						c-29.111-28.467-47.207-68.153-47.207-112.08c0-86.58,70.188-156.764,156.764-156.764c86.584,0,156.764,70.184,156.764,156.764
						C456.299,578.413,438.211,618.1,409.092,646.566z"/>
					<circle fill="#FFFFFF" cx="245.331" cy="489.064" r="52.743"/>
					<path fill="#FFFFFF" d="M295.053,440.717c0-11.379,9.211-20.604,20.604-20.604c11.383,0,20.604,9.225,20.604,20.604
						s-9.221,20.603-20.604,20.603C304.264,461.319,295.053,452.096,295.053,440.717z"/>
				</g>
				
					<path fill="none" stroke="#000000" stroke-width="8" stroke-linecap="round" stroke-linejoin="round" stroke-miterlimit="10" d="
					M566.189,754.981c0,0-24.904,38.459-72.523,38.459c-47.617,0-72.521-38.459-72.521-38.459"/>
			</g>
		</g>
		<g>
			<path fill="#ED4FD7" d="M883.201,195.27l118.189-111.771l26.346,27.857L909.543,223.118L883.201,195.27z"/>
			<path fill="#ED4FD7" d="M1040.785,46.245l39.391-37.262l26.346,27.857l-39.398,37.257L1040.785,46.245z"/>
			<path fill="#FFCB5A" d="M853.662,164.026l-26.342-27.857l28.574-26.998c22.486-21.281,26.865-55.74,10.43-81.962l32.477-20.362
				c26.143,41.644,19.168,96.383-16.574,130.186L853.662,164.026z"/>
			<path fill="#00DDC2" d="M965.447,282.215l-26.334-27.857l28.557-27.012c35.691-33.768,90.76-37.707,130.895-9.292l-22.133,31.299
				c-25.277-17.916-59.924-15.427-82.412,5.851L965.447,282.215z"/>
			<path fill="#FFCB5A" d="M1027.852,308.763l38.336,1.068l-1.064,38.33l-38.33-1.077L1027.852,308.763z"/>
			<path fill="#00DDC2" d="M959.742,0l38.344,1.064l-1.064,38.33l-38.34-1.073L959.742,0z"/>
			<path fill="#FFCB5A" d="M1071.535,118.185l38.326,1.068l-1.061,38.326l-38.338-1.061L1071.535,118.185z"/>
			<path fill="#ED4FD7" d="M767.039,32.986l38.334,1.061l-1.068,38.321l-38.334-1.056L767.039,32.986z"/>
		</g>
		<g>
			<path fill="#EC5569" d="M1369.721,458.289h-285.584c-47.523,0-86.051,38.527-86.051,86.052v187.308
				c0,47.529,38.527,86.053,86.051,86.053h40.982c1.953,0,3.533,1.579,3.533,3.527v92.4c0,10.925,13.361,16.221,20.848,8.259
				l96.941-103.075c0.67-0.713,1.602-1.111,2.572-1.111h120.707c47.529,0,86.053-38.528,86.053-86.053V544.341
				C1455.773,496.816,1417.25,458.289,1369.721,458.289z"/>
			<path fill="#EC5569" d="M1323.617,569.962L1323.617,569.962c-21.848-21.844-57.271-21.844-79.115,0l-12.34,12.341
				c-2.945,2.944-7.719,2.944-10.662,0l-12.139-12.144c-21.854-21.848-57.273-21.848-79.121,0l0,0
				c-21.852,21.848-21.852,57.272,0,79.12l91.268,91.271c2.945,2.94,7.713,2.94,10.658,0l91.451-91.469
				C1345.465,627.234,1345.465,591.814,1323.617,569.962z"/>
			<path fill="#FFF5F5" d="M1323.617,569.962L1323.617,569.962c-21.848-21.844-57.271-21.844-79.115,0l-12.34,12.341
				c-2.945,2.944-7.719,2.944-10.662,0l-12.139-12.144c-21.854-21.848-57.273-21.848-79.121,0l0,0
				c-21.852,21.848-21.852,57.272,0,79.12l91.268,91.271c2.945,2.94,7.713,2.94,10.658,0l91.451-91.469
				C1345.465,627.234,1345.465,591.814,1323.617,569.962z"/>
		</g>
	</g>
</g>
</svg>
