<?xml version="1.0" encoding="utf-8"?>
<!-- Generator: Adobe Illustrator 16.0.0, SVG Export Plug-In . SVG Version: 6.00 Build 0)  -->
<!DOCTYPE svg PUBLIC "-//W3C//DTD SVG 1.1//EN" "http://www.w3.org/Graphics/SVG/1.1/DTD/svg11.dtd">
<svg version="1.1" id="Layer_2" xmlns="http://www.w3.org/2000/svg" xmlns:xlink="http://www.w3.org/1999/xlink" x="0px" y="0px"
	 width="1437.657px" height="1346.187px" viewBox="0 0 1437.657 1346.187" enable-background="new 0 0 1437.657 1346.187"
	 xml:space="preserve">
<g>
	<g>
		<g>
			<path fill="#F76F1E" d="M83.965,184.827h41.985v293.866H83.965C37.785,478.693,0,440.908,0,394.729V268.792
				C0.009,222.612,37.785,184.827,83.965,184.827z"/>
			<path fill="#F76F1E" d="M1007.538,478.693h-41.977V184.827h41.977c46.184,0,83.965,37.785,83.965,83.965v125.937
				C1091.503,440.908,1053.722,478.693,1007.538,478.693z"/>
		</g>
		<g>
			<path fill="#F76F1E" d="M1000.132,1003.876c0-13.477,10.922-24.399,24.398-24.399s24.408,10.923,24.408,24.399
				c0,13.476-10.932,24.402-24.408,24.402S1000.132,1017.352,1000.132,1003.876z"/>
			<circle fill="#F76F1E" cx="1249.664" cy="824.021" r="15.253"/>
			<path fill="#F76F1E" d="M1122.28,1012.481c3.805,6.293,15.08,6.439,25.182,0.335c10.102-6.108,15.213-16.158,11.408-22.447
				c-3.804-6.293-15.079-6.447-25.181-0.335S1118.481,1006.188,1122.28,1012.481z"/>
			<path fill="#F76F1E" d="M1220.144,942.547c6.129,2.266,14.095-3.877,17.787-13.733c3.684-9.853,1.702-19.684-4.436-21.953
				c-6.131-2.27-14.096,3.869-17.779,13.734C1212.022,930.442,1214.005,940.27,1220.144,942.547z"/>
			<g>
				<linearGradient id="SVGID_1_" gradientUnits="userSpaceOnUse" x1="658.6221" y1="0" x2="658.622" y2="1346.1865">
					<stop  offset="0.1033" style="stop-color:#FFDB15"/>
					<stop  offset="0.7934" style="stop-color:#DDA51C"/>
				</linearGradient>
				<path fill="url(#SVGID_1_)" d="M1195.787,699.147c-47.568-0.529-58.392,46.352-60.722,72.604
					c-0.903,10.188-1.909,27.983-6.195,42.5c-8.996,30.464-32.27,77.659-81.084,77.659c-72.079,0-69.139-94.089-69.139-94.089
					v-532.43c0,0,0.895-30.507-1.333-42.466C967.105,168.075,923.389,13.205,737.272,0c-148.93,0-188.177,0-374.151,0
					C178.839,13.205,129.543,147.344,117.206,209.819c-3.877,19.602-5.709,61.99-5.709,61.99v390.469c0,0,0.344,55.572-1.599,75.883
					c-3.739,38.972-9.774,110.883-17.487,198.66c-11.734,133.523-39.254,255.304-39.254,255.304s-14.486,68.391,39.805,86.569
					c42.892,14.361,67.557-18.694,75.982-33.211c2.234-3.856,6.112-21.227,6.112-21.227l71.426-388.629
					c0,0,2.69-17.293,4.376-25.383c4.66-22.293,18.295-64.166,55.031-64.166c50.07,0,44.025,60.159,44.025,60.159l-19.076,429.904
					c0,0-3.852,76.3,55.752,76.3c45.102,0,62.27-29.394,67.961-43.708c0.576-1.444,2.15-8.666,2.709-13.76
					c1.143-10.433,2.527-25.225,2.527-25.225l34.664-392.846c0,0,2.037-28.809,2.605-34.831c1.693-18.145,9.86-54.528,47.998-54.528
					c50.809,0,54.291,64.562,54.291,64.562l49.89,451.917c0,0,6.233,82.163,73.36,82.163c52.598,0,56.101-56.741,55.155-81.316
					c-0.263-6.788-2.266-32.837-2.266-32.837L748.349,811.41c0,0-0.838-16.602-0.004-22.499
					c2.102-14.951,9.729-41.366,37.347-41.366c28.611,0,38.021,16.163,44.001,27.451c3.211,6.053,4.332,15.789,4.969,24.498
					c3.49,47.71,28.732,204.123,209.265,228.299c39.616,0,155.532-10.248,192.947-117.36
					c37.415-107.113,27.881-150.392,27.881-150.392S1261.813,699.878,1195.787,699.147z"/>
			</g>
			<path fill="#F76F1E" d="M1175.128,984.751c5.197,4.802,15.66,1.935,23.367-6.405c7.707-8.339,9.745-18.991,4.557-23.784
				c-5.193-4.801-15.656-1.934-23.354,6.401C1171.985,969.302,1169.948,979.958,1175.128,984.751z"/>
			<path fill="#F76F1E" d="M1067.151,1021.534c0.752,5.795,8.906,9.518,18.217,8.313c9.303-1.208,16.24-6.882,15.492-12.672
				c-0.756-5.799-8.906-9.526-18.217-8.318C1073.341,1010.062,1066.403,1015.739,1067.151,1021.534z"/>
			<path fill="#F76F1E" d="M1239.306,886.674c5.258,1.393,11.34-4.324,13.576-12.767c2.234-8.442-0.211-16.412-5.469-17.805
				c-5.257-1.393-11.331,4.32-13.574,12.767C1231.607,877.312,1234.049,885.285,1239.306,886.674z"/>
			<path fill="#F76F1E" d="M1261.86,783.658c3.723-0.009,6.729-4.866,6.707-10.842c-0.026-5.987-3.061-10.823-6.783-10.807
				c-3.719,0.014-6.729,4.875-6.707,10.858C1255.112,778.839,1258.143,783.68,1261.86,783.658z"/>
		</g>
		<g>
			<g>
				<path d="M852.856,476.862c-28.306-27.675-67.01-44.749-109.717-44.749c-42.711,0-81.42,17.074-109.723,44.749
					c-29.152-28.509-47.275-68.254-47.275-112.246c0-86.707,70.291-156.993,156.998-156.993s156.994,70.286,156.994,156.993
					C900.134,408.608,882.015,448.354,852.856,476.862z"/>
				<circle fill="#FFFFFF" cx="688.852" cy="319.129" r="52.821"/>
			</g>
			<g>
				<path d="M461.095,476.862c-28.303-27.675-67.007-44.749-109.718-44.749s-81.415,17.074-109.718,44.749
					c-29.152-28.509-47.275-68.254-47.275-112.246c0-86.707,70.291-156.993,156.993-156.993
					c86.712,0,156.994,70.286,156.994,156.993C508.371,408.608,490.257,448.354,461.095,476.862z"/>
				<circle fill="#FFFFFF" cx="297.094" cy="319.129" r="52.821"/>
				<path fill="#FFFFFF" d="M346.89,270.709c0-11.396,9.225-20.633,20.633-20.633c11.4,0,20.633,9.237,20.633,20.633
					s-9.232,20.634-20.633,20.634C356.114,291.343,346.89,282.104,346.89,270.709z"/>
			</g>
			<path fill="none" stroke="#000000" stroke-width="8" stroke-linecap="round" stroke-linejoin="round" stroke-miterlimit="10" d="
				M618.424,585.437c0,0-24.94,38.516-72.63,38.516c-47.688,0-72.629-38.516-72.629-38.516"/>
		</g>
		<path fill="#334A5E" d="M1016.023,440.767c-14.572,0-24.282,9.719-24.282,24.282v121.41c0,41.279-31.561,72.845-72.845,72.845
			h-75.269c-4.861-14.564-19.426-24.283-33.994-24.283h-48.569c-19.425,0-36.417,17.001-36.417,36.431
			c0,19.426,16.992,36.418,36.417,36.418h157.832c67.982,0,121.41-53.419,121.41-121.41V465.054
			C1040.307,450.485,1030.592,440.767,1016.023,440.767z"/>
		<g>
			<g>
				<g>
					<g>
						<path fill="#603813" d="M1437.657,752.923c0,10.626-3.396,17.41-13.971,17.41h-336.28c-10.575,0-19.749-6.784-19.749-17.41
							V308.129c0-10.631,9.174-17.796,19.749-17.796h336.28c10.574,0,13.971,7.165,13.971,17.796V752.923z"/>
						<g>
							<polygon fill="#F76F1E" points="1409.011,753.753 1090.338,741.687 1105.739,330.757 1424.409,342.822 							"/>
							<g>
								<polygon fill="#E6E6E6" points="1409.011,746.857 1090.338,734.791 1105.739,323.853 1424.409,335.924 								"/>
								<polygon fill="#E6E6E6" points="1431.759,718.977 1113.95,745.37 1079.759,335.575 1397.56,309.187 								"/>
								<g>
									<rect x="1094.657" y="321.333" fill="#FFFFFF" width="321" height="409"/>
								</g>
							</g>
						</g>
					</g>
					<g>
						<path fill="#A4AAB1" d="M1301.408,267.412c0-7.828-16.321-8.274-15.39-15.561c1.694-13.235-13.012-25.697-29.397-26.601
							v-0.047c-0.224,0-0.442,0.021-0.662,0.021c-0.228,0-0.451-0.021-0.671-0.021v0.047c-16.386,0.903-31.092,13.365-29.398,26.601
							c0.93,7.286-15.389,7.732-15.389,15.561c0,22.748,19.881,41.275,44.787,42.174v0.043c0.22,0,0.443-0.013,0.671-0.021
							c0.22,0.009,0.438,0.021,0.662,0.021v-0.043C1281.519,308.688,1301.408,290.16,1301.408,267.412z M1255.959,260.849
							c-6.022-0.589-10.726-5.417-10.726-11.336c0-5.915,4.703-10.746,10.726-11.331c6.005,0.585,10.712,5.416,10.712,11.331
							C1266.671,255.432,1261.964,260.26,1255.959,260.849z"/>
						<g>
							<rect x="1151.657" y="272.333" fill="#A4AAB1" width="211" height="66"/>
							<rect x="1151.657" y="290.333" fill="#BBC2CA" width="211" height="31"/>
						</g>
					</g>
				</g>
			</g>
			<g>
				<g>
					<rect x="1108.681" y="386.677" fill="#11E1FF" width="65.115" height="63.194"/>
					<rect x="1185.677" y="386.677" fill="#00DDC2" width="65.098" height="63.194"/>
					<rect x="1262.656" y="386.677" fill="#662D91" width="65.099" height="63.194"/>
					<rect x="1339.636" y="386.677" fill="#11E1FF" width="65.107" height="63.194"/>
				</g>
				<g>
					<rect x="1108.681" y="471.88" fill="#11E1FF" width="65.115" height="63.193"/>
					<rect x="1185.677" y="471.88" fill="#11E1FF" width="65.098" height="63.193"/>
					<rect x="1262.656" y="471.88" fill="#11E1FF" width="65.099" height="63.193"/>
					<rect x="1339.636" y="471.88" fill="#11E1FF" width="65.107" height="63.193"/>
				</g>
				<g>
					<rect x="1108.681" y="557.082" fill="#662D91" width="65.115" height="63.194"/>
					<rect x="1185.677" y="557.082" fill="#11E1FF" width="65.098" height="63.194"/>
					<rect x="1262.656" y="557.082" fill="#11E1FF" width="65.099" height="63.194"/>
					<rect x="1339.636" y="557.082" fill="#00DDC2" width="65.107" height="63.194"/>
				</g>
				<g>
					<rect x="1108.681" y="642.285" fill="#11E1FF" width="65.115" height="63.194"/>
					<rect x="1185.677" y="642.285" fill="#11E1FF" width="65.098" height="63.194"/>
					<rect x="1262.656" y="642.285" fill="#11E1FF" width="65.099" height="63.194"/>
					<rect x="1339.636" y="642.285" fill="#662D91" width="65.107" height="63.194"/>
				</g>
				<text transform="matrix(1 0 0 1 1219.0537 370.3369)" font-family="'Javatages'" font-size="32.3153">Month</text>
				<path fill="#FCEE21" d="M1297.041,401.215l4.298,8.7c0.297,0.606,0.877,1.023,1.544,1.122l9.603,1.393
					c1.682,0.245,2.352,2.313,1.135,3.499l-6.95,6.775c-0.481,0.468-0.7,1.147-0.585,1.81l1.638,9.564
					c0.288,1.676-1.47,2.953-2.975,2.162l-8.589-4.514c-0.598-0.313-1.311-0.313-1.908,0l-8.588,4.514
					c-1.506,0.791-3.264-0.486-2.975-2.162l1.641-9.564c0.112-0.662-0.107-1.342-0.588-1.81l-6.947-6.775
					c-1.221-1.186-0.55-3.254,1.135-3.499l9.6-1.393c0.67-0.099,1.246-0.516,1.547-1.122l4.295-8.7
					C1294.118,399.689,1296.293,399.689,1297.041,401.215z"/>
				<path fill="#FCEE21" d="M1143.073,571.62l4.299,8.7c0.297,0.606,0.877,1.023,1.543,1.122l9.604,1.394
					c1.68,0.244,2.352,2.313,1.135,3.499l-6.951,6.774c-0.481,0.469-0.701,1.147-0.584,1.81l1.637,9.564
					c0.289,1.677-1.47,2.953-2.975,2.162l-8.588-4.514c-0.598-0.313-1.312-0.313-1.908,0l-8.59,4.514
					c-1.504,0.791-3.262-0.485-2.975-2.162l1.643-9.564c0.111-0.662-0.107-1.341-0.589-1.81l-6.946-6.774
					c-1.221-1.187-0.551-3.255,1.135-3.499l9.599-1.394c0.671-0.099,1.247-0.516,1.548-1.122l4.294-8.7
					C1140.15,570.095,1142.325,570.095,1143.073,571.62z"/>
				<path fill="#FCEE21" d="M1374.024,656.823l4.299,8.7c0.297,0.606,0.877,1.023,1.543,1.122l9.604,1.393
					c1.681,0.245,2.352,2.313,1.135,3.499l-6.951,6.774c-0.481,0.469-0.701,1.148-0.584,1.811l1.637,9.563
					c0.289,1.677-1.47,2.953-2.975,2.163l-8.588-4.514c-0.598-0.314-1.311-0.314-1.908,0l-8.59,4.514
					c-1.504,0.79-3.262-0.486-2.975-2.163l1.643-9.563c0.111-0.662-0.107-1.342-0.589-1.811l-6.946-6.774
					c-1.221-1.187-0.551-3.254,1.135-3.499l9.599-1.393c0.671-0.099,1.247-0.516,1.548-1.122l4.294-8.7
					C1371.102,655.297,1373.276,655.297,1374.024,656.823z"/>
			</g>
		</g>
	</g>
</g>
</svg>
