<?xml version="1.0" encoding="utf-8"?>
<!-- Generator: Adobe Illustrator 23.0.3, SVG Export Plug-In . SVG Version: 6.00 Build 0)  -->
<svg version="1.1" id="Layer_1" xmlns="http://www.w3.org/2000/svg" xmlns:xlink="http://www.w3.org/1999/xlink" x="0px" y="0px"
	 viewBox="0 0 1214.1 1342.8" style="enable-background:new 0 0 1214.1 1342.8;" xml:space="preserve">
<style type="text/css">
	.st0{fill:#F76F1E;}
	.st1{fill:url(#SVGID_1_);}
	.st2{fill:#FFFFFF;}
	.st3{fill:#334A5E;}
	.st4{fill:#00FF00;}
	.st5{fill:#FF330C;}
	.st6{fill:#CCCCCC;}
</style>
<g>
	<g>
		<g>
			<path class="st0" d="M946.3,1001.4c0-13.4,10.9-24.3,24.3-24.3c13.4,0,24.3,10.9,24.3,24.3c0,13.4-10.9,24.3-24.3,24.3
				C957.2,1025.7,946.3,1014.8,946.3,1001.4z"/>
			<path class="st0" d="M1180,821.9c0-8.4,6.8-15.2,15.2-15.2c8.4,0,15.2,6.8,15.2,15.2c0,8.4-6.8,15.2-15.2,15.2
				C1186.8,837.2,1180,830.3,1180,821.9z"/>
			<path class="st0" d="M1068.2,1009.9c3.8,6.3,15,6.4,25.1,0.3c10.1-6.1,15.2-16.1,11.4-22.4c-3.8-6.3-15-6.4-25.1-0.3
				C1069.5,993.6,1064.4,1003.7,1068.2,1009.9z"/>
			<path class="st0" d="M1165.8,940.2c6.1,2.3,14.1-3.9,17.7-13.7c3.7-9.8,1.7-19.6-4.4-21.9c-6.1-2.3-14.1,3.9-17.7,13.7
				C1157.7,928.1,1159.7,937.9,1165.8,940.2z"/>
			<g>
				<linearGradient id="SVGID_1_" gradientUnits="userSpaceOnUse" x1="605.6919" y1="0" x2="605.6919" y2="1342.7996">
					<stop  offset="0.1033" style="stop-color:#FFDB15"/>
					<stop  offset="0.7934" style="stop-color:#DDA51C"/>
				</linearGradient>
				<path class="st1" d="M1141.5,697.4c-47.4-0.5-58.2,46.2-60.6,72.4c-0.9,10.2-1.9,27.9-6.2,42.4c-9,30.4-32.2,77.5-80.9,77.5
					c-71.9,0-69-93.9-69-93.9V264.7c0,0,0.9-30.4-1.3-42.4C913.4,167.7,869.8,13.2,684.1,0C535.6,0,496.4,0,310.9,0
					C127.1,13.2,77.9,147,65.6,209.3c-3.9,19.6-5.7,61.8-5.7,61.8v389.5c0,0,0.3,55.4-1.6,75.7c-3.7,38.9-9.7,110.6-17.4,198.2
					c-11.7,133.2-39.2,254.7-39.2,254.7s-14.4,68.2,39.7,86.4c42.8,14.3,67.4-18.6,75.8-33.1c2.2-3.8,6.1-21.2,6.1-21.2l71.2-387.7
					c0,0,2.7-17.3,4.4-25.3c4.6-22.2,18.2-64,54.9-64c49.9,0,43.9,60,43.9,60l-19,428.8c0,0-3.8,76.1,55.6,76.1
					c45,0,62.1-29.3,67.8-43.6c0.6-1.4,2.1-8.6,2.7-13.7c1.1-10.4,2.5-25.2,2.5-25.2l34.6-391.9c0,0,2-28.7,2.6-34.7
					c1.7-18.1,9.8-54.4,47.9-54.4c50.7,0,54.2,64.4,54.2,64.4l49.8,450.8c0,0,6.2,82,73.2,82c52.5,0,56-56.6,55-81.1
					c-0.3-6.8-2.3-32.8-2.3-32.8l-27.1-419.6c0,0-0.8-16.6,0-22.4c2.1-14.9,9.7-41.3,37.3-41.3c28.5,0,37.9,16.1,43.9,27.4
					c3.2,6,4.3,15.7,5,24.4c3.5,47.6,28.7,203.6,208.7,227.7c39.5,0,155.1-10.2,192.5-117.1c37.3-106.8,27.8-150,27.8-150
					S1207.4,698.1,1141.5,697.4z"/>
			</g>
			<path class="st0" d="M1120.9,982.3c5.2,4.8,15.6,1.9,23.3-6.4c7.7-8.3,9.7-18.9,4.5-23.7c-5.2-4.8-15.6-1.9-23.3,6.4
				C1117.8,966.9,1115.7,977.5,1120.9,982.3z"/>
			<path class="st0" d="M1013.2,1019c0.8,5.8,8.9,9.5,18.2,8.3c9.3-1.2,16.2-6.9,15.5-12.6c-0.8-5.8-8.9-9.5-18.2-8.3
				C1019.4,1007.5,1012.4,1013.2,1013.2,1019z"/>
			<path class="st0" d="M1184.9,884.4c5.2,1.4,11.3-4.3,13.5-12.7c2.2-8.4-0.2-16.4-5.5-17.8c-5.2-1.4-11.3,4.3-13.5,12.7
				C1177.2,875.1,1179.7,883.1,1184.9,884.4z"/>
			<path class="st0" d="M1207.4,781.7c3.7,0,6.7-4.9,6.7-10.8c0-6-3.1-10.8-6.8-10.8c-3.7,0-6.7,4.9-6.7,10.8
				C1200.7,776.9,1203.7,781.7,1207.4,781.7z"/>
		</g>
		<g>
			<g>
				<path d="M799.4,475.7C771.2,448.1,732.6,431,690,431c-42.6,0-81.2,17-109.4,44.6c-29.1-28.4-47.2-68.1-47.2-112
					c0-86.5,70.1-156.6,156.6-156.6c86.5,0,156.6,70.1,156.6,156.6C846.6,407.6,828.5,447.2,799.4,475.7z"/>
				<path class="st2" d="M583.2,318.3c0-29.1,23.6-52.7,52.7-52.7c29.1,0,52.7,23.6,52.7,52.7c0,29.1-23.6,52.7-52.7,52.7
					C606.7,371,583.2,347.4,583.2,318.3z"/>
			</g>
			<g>
				<path d="M408.7,475.7c-28.2-27.6-66.8-44.6-109.4-44.6c-42.6,0-81.2,17-109.4,44.6c-29.1-28.4-47.2-68.1-47.2-112
					c0-86.5,70.1-156.6,156.6-156.6c86.5,0,156.6,70.1,156.6,156.6C455.8,407.6,437.7,447.2,408.7,475.7z"/>
				<path class="st2" d="M192.4,318.3c0-29.1,23.6-52.7,52.7-52.7c29.1,0,52.7,23.6,52.7,52.7c0,29.1-23.6,52.7-52.7,52.7
					C216,371,192.4,347.4,192.4,318.3z"/>
				<path class="st2" d="M294.7,270c0-11.4,9.2-20.6,20.6-20.6c11.4,0,20.6,9.2,20.6,20.6c0,11.4-9.2,20.6-20.6,20.6
					C303.9,290.6,294.7,281.4,294.7,270z"/>
			</g>
			<g>
				<path d="M493.1,629.1c-50.6,0-77-39.8-78.1-41.5c-2-3.1-1.1-7.2,2-9.2c3.1-2,7.2-1.1,9.2,2c0.2,0.3,23.6,35.4,66.8,35.4
					c43.2,0,66.6-35,66.8-35.4c2-3.1,6.2-4,9.2-1.9c3.1,2,4,6.1,2,9.2C570.1,589.3,543.8,629.1,493.1,629.1z"/>
			</g>
		</g>
		<g>
			<g>
				<path class="st3" d="M1144,781.9c-13.3,0-24.1-10.8-24.1-24.2V497.7c0-13.3,10.8-24.1,24.1-24.1c13.3,0,24.1,10.8,24.1,24.1
					v260.1C1168.2,771.1,1157.3,781.9,1144,781.9z"/>
			</g>
			<g>
				<path class="st4" d="M1144,632.8c-21,0-38.1-17-38.1-38.1v-410c0-21,17-38.1,38.1-38.1c21,0,38.1,17,38.1,38.1v410
					C1182.1,615.8,1165,632.8,1144,632.8z"/>
			</g>
		</g>
	</g>
	<g>
		<g>
			<path class="st5" d="M218.6,1137c-13.9,0-24.9-4.6-32.6-13.6c-25.6-29.7-14.4-104.4-3.6-176.7c5.2-34.7,10.5-70.6,11.6-100.5
				c1.9-53.8-27.8-71.5-45.5-82.1c-2.1-1.3-4.2-2.5-5.9-3.6l-83.5-19.5c-0.5-0.1-0.8-0.5-0.8-1l1-104.9c0-0.5,0.4-0.9,0.9-1
				c0.2,0,20.4-1.7,59.3-1.7c22.8,0,47.5,0.6,73.3,1.7c46.3,2.1,125,29.3,183.2,54.2c58.6,25,117.8,56.4,117.8,70.1
				c0,4.8,0,18.5,0,37.7c0.1,78.1,0.2,240.8,0,274.7c-0.1,20.6-27.9,37.6-80.4,49.3c-48.6,10.8-115.9,16.7-194.5,17L218.6,1137z"/>
			<path d="M119.4,633.3c19.6,0,44.1,0.4,73.3,1.7c87.6,3.9,300,99.2,300,123.3c0,24,0.2,269.9,0,312.4
				c-0.2,42.4-120.8,64.6-273.9,65.3c-0.1,0-0.2,0-0.3,0c-87.4,0-27.6-180.2-23.6-289.8c2.2-61.2-36.5-76.5-52-86.7l-83.6-19.5
				l1-104.9C60.3,635.1,80.2,633.3,119.4,633.3 M119.4,631.3v2V631.3c-38.9,0-59.2,1.7-59.4,1.7c-1,0.1-1.8,0.9-1.8,2l-1,104.9
				c0,0.9,0.6,1.8,1.5,2l83.3,19.5c1.7,1.1,3.7,2.3,5.8,3.5c17.6,10.5,46.9,28.1,45,81.2c-1.1,29.9-6.4,65.7-11.6,100.4
				c-5.4,36-10.9,73.2-11.9,104.5c-1.1,36,3.9,59.2,15.7,73c8,9.3,19.2,14,33.4,14l0.3,0c78.7-0.3,146-6.2,194.7-17
				c25.5-5.6,45.2-12.5,58.8-20.5c14.8-8.7,22.3-18.7,22.3-29.7c0.2-34,0.1-196.6,0-274.7c0-19.2,0-32.8,0-37.7c0-3.6-3.2-8-10-13.6
				c-5.9-4.9-14.5-10.6-25.5-17c-21.3-12.4-50.7-26.7-82.8-40.5c-58.3-24.9-137.1-52.2-183.6-54.2
				C166.9,631.9,142.3,631.3,119.4,631.3L119.4,631.3z"/>
		</g>
		<g>
			<path class="st5" d="M767.5,1137c-78.6-0.3-145.9-6.2-194.5-17c-52.5-11.6-80.3-28.7-80.4-49.3c-0.2-34-0.1-196.6,0-274.7
				c0-19.2,0-32.8,0-37.7c0-13.7,59.2-45.1,117.8-70.1c58.2-24.8,136.9-52.1,183.2-54.2c25.8-1.2,50.5-1.7,73.3-1.7
				c38.8,0,59.1,1.7,59.3,1.7c0.5,0,0.9,0.5,0.9,1l1,104.9c0,0.5-0.3,0.9-0.8,1l-83.5,19.5c-1.7,1.1-3.7,2.3-5.9,3.6
				c-17.7,10.6-47.4,28.4-45.5,82.1c1.1,29.9,6.4,65.8,11.6,100.5c10.8,72.3,22,147-3.6,176.7c-7.8,9-18.8,13.6-32.6,13.6
				C767.7,1137,767.5,1137,767.5,1137z"/>
			<path d="M866.9,633.3c39.2,0,59.2,1.7,59.2,1.7l1,104.9l-83.6,19.5c-15.5,10.2-54.2,25.5-52,86.7c4,109.5,63.8,289.8-23.6,289.8
				c-0.1,0-0.2,0-0.3,0c-153.2-0.6-273.7-22.8-273.9-65.3c-0.2-42.4,0-288.3,0-312.4c0-24,212.4-119.4,300-123.3
				C822.8,633.8,847.2,633.3,866.9,633.3 M866.9,631.3c-22.8,0-47.5,0.6-73.4,1.7c-46.4,2.1-125.3,29.4-183.6,54.2
				c-32.1,13.7-61.6,28.1-82.8,40.5c-11,6.4-19.6,12.1-25.5,17c-6.8,5.6-10,9.9-10,13.6c0,4.8,0,18.5,0,37.7
				c-0.1,78.1-0.2,240.8,0,274.7c0.1,11.1,7.6,21.1,22.3,29.7c13.6,8,33.4,14.9,58.8,20.5c48.7,10.8,116,16.7,194.7,17l0.3,0
				c14.2,0,25.4-4.7,33.4-14c11.8-13.7,16.8-36.9,15.7-73c-1-31.3-6.5-68.5-11.9-104.5c-5.2-34.7-10.5-70.6-11.6-100.4
				c-1.9-53.2,27.5-70.7,45-81.2c2.1-1.2,4.1-2.4,5.8-3.5l83.3-19.5c0.9-0.2,1.6-1,1.5-2L928,635c0-1-0.8-1.9-1.8-2
				C926,633.1,905.7,631.3,866.9,631.3L866.9,631.3z"/>
		</g>
		<g>
			<polygon class="st6" points="484.6,966.7 180.3,966.7 188.4,910.7 484.6,910.7 			"/>
			<path class="st6" d="M484.6,1068.7H171.4c0,0-1.2-19.3,0-28.6c1.2-9.3,2.8-27.4,2.8-27.4h310.4V1068.7z"/>
		</g>
		<g>
			<polygon class="st6" points="493.5,966.7 806,966.7 797.8,910.7 493.5,910.7 			"/>
			<path class="st6" d="M493.5,1068.7h321.4c0,0,1.2-19.3,0-28.6c-1.2-9.3-2.8-27.4-2.8-27.4H493.5V1068.7z"/>
		</g>
	</g>
</g>
</svg>
